<?xml version="1.0" encoding="utf-8"?>
<!-- Generator: Adobe Illustrator 28.0.0, SVG Export Plug-In . SVG Version: 6.00 Build 0)  -->
<svg version="1.1" id="Layer_1" xmlns="http://www.w3.org/2000/svg" xmlns:xlink="http://www.w3.org/1999/xlink" x="0px" y="0px"
	 viewBox="0 0 278.6 80" style="enable-background:new 0 0 278.6 80;" xml:space="preserve">
<style type="text/css">
	.st0{fill:#FFFFFF;}
</style>
<g>
	<g>
		<g>
			<path class="st0" d="M107.1,37.2l1.3,4.5c-2,0.7-4,1-6,1c-2.8,0-5.2-0.5-7.4-1.5c-2.2-1-3.8-2.5-5.1-4.4
				c-1.2-1.9-1.8-4.1-1.8-6.5c0-2.4,0.6-4.5,1.8-6.4c1.2-1.9,2.8-3.4,5-4.4c2.1-1.1,4.5-1.6,7.1-1.6c2.1,0,4.3,0.4,6.4,1.2l-1.8,4.3
				c-1.3-0.3-2.4-0.5-3.4-0.5c-2.3,0-4.1,0.7-5.5,2c-1.4,1.3-2.1,3.2-2.1,5.4c0,1,0.2,2,0.5,2.9c0.3,0.9,0.8,1.7,1.4,2.3
				c0.6,0.7,1.4,1.2,2.4,1.6c1,0.4,2.1,0.6,3.4,0.6C104.6,37.7,105.8,37.6,107.1,37.2z"/>
			<path class="st0" d="M130.3,42.3h-6.9v-2.5c-0.8,1.1-1.7,1.8-2.6,2.3c-0.9,0.5-1.9,0.7-3.2,0.7c-1.3,0-2.3-0.2-3.3-0.7
				c-0.9-0.5-1.6-1.2-2.1-2.1c-0.3-0.5-0.4-1.1-0.5-1.8c-0.1-0.7-0.2-1.7-0.2-3v-10h6.8v10.2c0,0.9,0.1,1.6,0.4,2.1
				c0.3,0.6,0.9,0.9,1.8,0.9c1.2,0,1.9-0.5,2.4-1.4c0.2-0.6,0.4-1.3,0.4-2.1v-9.7h6.9V42.3z"/>
			<path class="st0" d="M141.8,42.3h-6.7V17.1h6.7v10.3c0.9-1,1.7-1.7,2.6-2.1c0.8-0.4,1.8-0.6,3-0.6c2.2,0,4,0.8,5.4,2.4
				c1.4,1.6,2.1,3.7,2.1,6.2c0,1.7-0.4,3.3-1.1,4.8c-0.7,1.4-1.7,2.6-2.9,3.4c-1.2,0.8-2.6,1.2-4.1,1.2c-1,0-1.8-0.2-2.5-0.6
				c-0.7-0.4-1.5-1.1-2.4-2.1V42.3z M146.7,37.9c0.7-1.1,1-2.5,1-4.3c0-1.6-0.3-2.9-0.8-3.8c-0.5-0.9-1.2-1.4-2.1-1.4
				c-0.9,0-1.7,0.5-2.2,1.4c-0.5,1-0.8,2.3-0.8,3.9c0,1.7,0.3,3,0.8,4c0.5,1,1.2,1.5,2,1.5C145.4,39.2,146.1,38.8,146.7,37.9z"/>
			<path class="st0" d="M173.1,37.5l1.8,3.4c-2.6,1.2-5.2,1.9-7.7,1.9c-2.7,0-4.9-0.8-6.7-2.3c-1.1-0.9-1.9-1.9-2.4-3.2
				c-0.6-1.3-0.9-2.5-0.9-3.9c0-1.2,0.3-2.4,0.8-3.6c0.5-1.2,1.3-2.1,2.2-2.9c1.7-1.4,3.9-2.1,6.6-2.1c3,0,5.2,1,6.6,3
				c1,1.5,1.5,3.2,1.5,5.3c0,0.6,0,1.1,0,1.5h-10.5c0,1.3,0.4,2.3,1.2,3c0.8,0.7,1.8,1,3.1,1C169.9,38.7,171.4,38.3,173.1,37.5z
				 M169.1,31.7V31c0-2.3-0.8-3.4-2.4-3.4c-0.8,0-1.4,0.3-1.8,1c-0.4,0.7-0.6,1.7-0.6,3.1H169.1z"/>
			<path class="st0" d="M177.2,41.1l1.4-3.5c1.5,1.1,2.8,1.6,3.6,1.6c0.5,0,0.9-0.1,1.2-0.4c0.4-0.3,0.5-0.6,0.5-1
				c0-0.4-0.2-0.7-0.5-1.1c-0.3-0.4-1.1-1-2.5-2c-1.1-0.8-1.9-1.6-2.4-2.3c-0.5-0.7-0.8-1.6-0.8-2.6c0-1.6,0.6-2.8,1.8-3.7
				c1.2-0.9,2.8-1.4,4.8-1.4c2,0,3.8,0.4,5.5,1.2l-1.4,3.1c-0.8-0.5-1.7-0.7-2.5-0.7c-0.4,0-0.8,0.1-1.1,0.4
				c-0.3,0.2-0.4,0.5-0.4,0.9c0,0.4,0.2,0.8,0.6,1.2c0.4,0.4,1.2,1,2.3,1.9c1.2,0.9,2.1,1.7,2.5,2.4c0.5,0.7,0.7,1.5,0.7,2.4
				c0,1.6-0.7,2.9-2.1,3.9c-1.4,1-3.2,1.5-5.3,1.5C181,42.8,179,42.2,177.2,41.1z"/>
			<path class="st0" d="M205.9,38.6l0.8,3.1c-2,0.7-4.1,1.1-6,1.1c-2.4,0-4-0.6-5-1.9c-0.4-0.5-0.6-1.1-0.8-1.6
				c-0.1-0.6-0.2-1.5-0.2-2.8v-8.1h-2.4v-3.1h2.4V21l6.8-1v5.1h4.5v3.1h-4.5v6.1c0,1.7,0.2,2.8,0.6,3.6c0.4,0.7,1,1.1,1.8,1.1
				C204.6,39,205.2,38.9,205.9,38.6z"/>
			<path class="st0" d="M227.7,33.6c0,2.7-0.9,4.9-2.8,6.6c-1.9,1.7-4.2,2.6-7.1,2.6c-2.9,0-5.2-0.9-7.1-2.6
				c-1.8-1.7-2.8-3.9-2.8-6.6c0-2.6,0.9-4.7,2.8-6.4c1.9-1.7,4.2-2.5,7.2-2.5c2.8,0,5.1,0.8,7,2.5C226.8,29,227.7,31.1,227.7,33.6z
				 M217.8,39.7c0.9,0,1.6-0.5,2.1-1.6c0.5-1,0.8-2.5,0.8-4.4c0-1.9-0.2-3.3-0.7-4.4c-0.5-1-1.2-1.5-2.1-1.5c-0.9,0-1.6,0.5-2.1,1.6
				c-0.5,1.1-0.8,2.5-0.8,4.3c0,1.8,0.3,3.3,0.8,4.4S217,39.7,217.8,39.7z"/>
			<path class="st0" d="M249.9,42.3h-6.8V32.2c0-0.9-0.1-1.6-0.4-2.1c-0.3-0.6-0.9-1-1.8-1c-1.2,0-2,0.5-2.4,1.4
				c-0.2,0.5-0.3,1.2-0.3,2.1v9.6h-6.8V25.2h6.8v2.5c0.8-1,1.7-1.8,2.6-2.3c0.9-0.5,2-0.7,3.2-0.7c1.2,0,2.3,0.3,3.3,0.8
				c1,0.5,1.7,1.2,2.1,2.2c0.2,0.5,0.4,1.1,0.5,1.7c0.1,0.7,0.1,1.6,0.1,2.9V42.3z"/>
			<path class="st0" d="M269.3,37.5l1.8,3.4c-2.6,1.2-5.2,1.9-7.7,1.9c-2.7,0-4.9-0.8-6.7-2.3c-1.1-0.9-1.9-1.9-2.4-3.2
				c-0.6-1.3-0.9-2.5-0.9-3.9c0-1.2,0.3-2.4,0.8-3.6c0.5-1.2,1.3-2.1,2.2-2.9c1.7-1.4,3.9-2.1,6.6-2.1c3,0,5.2,1,6.6,3
				c1,1.5,1.5,3.2,1.5,5.3c0,0.6,0,1.1,0,1.5h-10.5c0,1.3,0.4,2.3,1.2,3c0.8,0.7,1.8,1,3.1,1C266.2,38.7,267.7,38.3,269.3,37.5z
				 M265.4,31.7V31c0-2.3-0.8-3.4-2.4-3.4c-0.8,0-1.4,0.3-1.8,1c-0.4,0.7-0.6,1.7-0.6,3.1H265.4z"/>
		</g>
		<g>
			<path class="st0" d="M94.8,59.3l0.4,1.2c-0.5,0.2-1,0.3-1.6,0.3c-0.7,0-1.4-0.1-1.9-0.4s-1-0.6-1.3-1.1c-0.3-0.5-0.5-1.1-0.5-1.7
				c0-0.6,0.2-1.2,0.5-1.7c0.3-0.5,0.7-0.9,1.3-1.2c0.6-0.3,1.2-0.4,1.9-0.4c0.6,0,1.1,0.1,1.7,0.3l-0.5,1.1
				c-0.3-0.1-0.6-0.1-0.9-0.1c-0.6,0-1.1,0.2-1.4,0.5c-0.4,0.4-0.5,0.8-0.5,1.4c0,0.3,0,0.5,0.1,0.8c0.1,0.2,0.2,0.4,0.4,0.6
				c0.2,0.2,0.4,0.3,0.6,0.4c0.3,0.1,0.6,0.2,0.9,0.2C94.2,59.4,94.5,59.3,94.8,59.3z"/>
			<path class="st0" d="M114.9,58.3c0,0.7-0.2,1.3-0.7,1.7c-0.5,0.5-1.1,0.7-1.9,0.7c-0.8,0-1.4-0.2-1.9-0.7c-0.5-0.5-0.7-1-0.7-1.7
				c0-0.7,0.2-1.2,0.7-1.7c0.5-0.4,1.1-0.7,1.9-0.7c0.7,0,1.3,0.2,1.8,0.7C114.6,57.1,114.9,57.6,114.9,58.3z M112.3,59.9
				c0.2,0,0.4-0.1,0.6-0.4c0.1-0.3,0.2-0.7,0.2-1.2c0-0.5-0.1-0.9-0.2-1.1c-0.1-0.3-0.3-0.4-0.6-0.4c-0.2,0-0.4,0.1-0.5,0.4
				c-0.1,0.3-0.2,0.7-0.2,1.1c0,0.5,0.1,0.9,0.2,1.1C111.8,59.8,112,59.9,112.3,59.9z"/>
			<path class="st0" d="M134.5,60.6h-1.8v-2.7c0-0.2,0-0.4-0.1-0.6c-0.1-0.2-0.2-0.3-0.5-0.3c-0.3,0-0.5,0.1-0.6,0.4
				c-0.1,0.1-0.1,0.3-0.1,0.6v2.5h-1.8v-4.5h1.8v0.7c0.2-0.3,0.4-0.5,0.7-0.6c0.2-0.1,0.5-0.2,0.8-0.2c0.3,0,0.6,0.1,0.9,0.2
				c0.3,0.1,0.4,0.3,0.6,0.6c0.1,0.1,0.1,0.3,0.1,0.5c0,0.2,0,0.4,0,0.8V60.6z"/>
			<path class="st0" d="M150,60.3l0.4-0.9c0.4,0.3,0.7,0.4,1,0.4c0.1,0,0.2,0,0.3-0.1c0.1-0.1,0.1-0.2,0.1-0.3c0-0.1,0-0.2-0.1-0.3
				c-0.1-0.1-0.3-0.3-0.6-0.5c-0.3-0.2-0.5-0.4-0.6-0.6c-0.1-0.2-0.2-0.4-0.2-0.7c0-0.4,0.2-0.7,0.5-1c0.3-0.2,0.7-0.4,1.3-0.4
				c0.5,0,1,0.1,1.5,0.3l-0.4,0.8c-0.2-0.1-0.4-0.2-0.7-0.2c-0.1,0-0.2,0-0.3,0.1c-0.1,0.1-0.1,0.1-0.1,0.2c0,0.1,0.1,0.2,0.1,0.3
				c0.1,0.1,0.3,0.3,0.6,0.5c0.3,0.2,0.5,0.4,0.7,0.6c0.1,0.2,0.2,0.4,0.2,0.6c0,0.4-0.2,0.8-0.6,1c-0.4,0.3-0.8,0.4-1.4,0.4
				C151,60.7,150.5,60.6,150,60.3z"/>
			<path class="st0" d="M174,60.6h-1.8v-0.7c-0.2,0.3-0.4,0.5-0.7,0.6c-0.2,0.1-0.5,0.2-0.8,0.2c-0.3,0-0.6-0.1-0.9-0.2
				c-0.2-0.1-0.4-0.3-0.5-0.6c-0.1-0.1-0.1-0.3-0.1-0.5c0-0.2,0-0.4,0-0.8v-2.6h1.8v2.7c0,0.2,0,0.4,0.1,0.6
				c0.1,0.2,0.2,0.2,0.5,0.2c0.3,0,0.5-0.1,0.6-0.4c0.1-0.1,0.1-0.3,0.1-0.5v-2.5h1.8V60.6z"/>
			<path class="st0" d="M192.2,60.6h-1.8V54h1.8V60.6z"/>
			<path class="st0" d="M212.7,59.6l0.2,0.8c-0.5,0.2-1.1,0.3-1.6,0.3c-0.6,0-1.1-0.2-1.3-0.5c-0.1-0.1-0.2-0.3-0.2-0.4
				c0-0.2-0.1-0.4-0.1-0.7v-2.1h-0.6v-0.8h0.6V55l1.8-0.3v1.4h1.2v0.8h-1.2v1.6c0,0.4,0,0.7,0.1,0.9c0.1,0.2,0.3,0.3,0.5,0.3
				C212.4,59.7,212.6,59.7,212.7,59.6z"/>
			<path class="st0" d="M230.8,55.7c-0.3,0-0.5-0.1-0.7-0.3c-0.2-0.2-0.3-0.4-0.3-0.6c0-0.3,0.1-0.5,0.3-0.7
				c0.2-0.2,0.4-0.3,0.7-0.3c0.3,0,0.5,0.1,0.7,0.3c0.2,0.2,0.3,0.4,0.3,0.7c0,0.3-0.1,0.5-0.3,0.7
				C231.3,55.6,231.1,55.7,230.8,55.7z M231.7,60.6h-1.8v-4.5h1.8V60.6z"/>
			<path class="st0" d="M253,60.6h-1.8v-2.7c0-0.2,0-0.4-0.1-0.6c-0.1-0.2-0.2-0.3-0.5-0.3c-0.3,0-0.5,0.1-0.6,0.4
				c-0.1,0.1-0.1,0.3-0.1,0.6v2.5h-1.8v-4.5h1.8v0.7c0.2-0.3,0.4-0.5,0.7-0.6c0.2-0.1,0.5-0.2,0.8-0.2c0.3,0,0.6,0.1,0.9,0.2
				c0.3,0.1,0.4,0.3,0.6,0.6c0.1,0.1,0.1,0.3,0.1,0.5c0,0.2,0,0.4,0,0.8V60.6z"/>
			<path class="st0" d="M271.1,60.4V60c-0.2,0.3-0.5,0.5-0.7,0.6c-0.2,0.1-0.4,0.2-0.7,0.2c-0.3,0-0.5,0-0.7-0.1
				c-0.2-0.1-0.4-0.2-0.5-0.4c-0.1-0.2-0.3-0.3-0.4-0.5c-0.1-0.2-0.2-0.4-0.2-0.6c0-0.2-0.1-0.5-0.1-0.7c0-0.7,0.2-1.2,0.6-1.7
				c0.4-0.4,0.9-0.7,1.4-0.7c0.6,0,1,0.2,1.3,0.7v-0.6h1.8v3.2c0,0.5,0,0.8,0,1c0,0.2,0,0.4-0.1,0.6c-0.3,1.3-1.2,1.9-2.6,1.9
				c-0.6,0-1.3-0.1-2-0.4l0.3-1.1c0.5,0.3,0.9,0.4,1.4,0.4c0.3,0,0.5,0,0.7-0.1c0.2-0.1,0.3-0.2,0.5-0.4c0.1-0.1,0.1-0.2,0.1-0.3
				C271.1,60.8,271.1,60.6,271.1,60.4z M270.4,59.8c0.2,0,0.4-0.1,0.5-0.4c0.1-0.3,0.2-0.6,0.2-1.1c0-0.5-0.1-0.8-0.2-1
				c-0.1-0.2-0.3-0.4-0.5-0.4c-0.2,0-0.4,0.1-0.5,0.4c-0.1,0.2-0.2,0.6-0.2,1c0,0.4,0.1,0.8,0.2,1.1C270,59.7,270.2,59.8,270.4,59.8
				z"/>
		</g>
	</g>
	<g>
		<path class="st0" d="M62.2,19.3c-0.4,0-0.8-0.1-1.2-0.1c-14.9-1.6-27.6,2.2-28.2,8.4c-0.2,2.3,1.3,4.7,4,6.8
			c-11-2.2-18.9-7.3-18.4-12.2c0.6-5.8,12.3-9.3,26.2-7.8C51.7,15,57.9,16.9,62.2,19.3z"/>
		<path class="st0" d="M43.8,64.4c0.2-0.3,0.5-0.6,0.7-0.9c8.9-12.1,12-24.9,7-28.6c-1.9-1.4-4.7-1.3-7.9,0
			c7.5-8.4,15.8-12.7,19.8-9.7c4.7,3.4,1.8,15.3-6.5,26.6C52.7,57.5,48,61.9,43.8,64.4z"/>
		<path class="st0" d="M14,26.3c0.1,0.4,0.3,0.7,0.4,1.1c5.8,13.9,15.1,23.2,20.9,20.8c2.2-0.9,3.5-3.3,4.1-6.8
			c3.3,10.8,2.6,20.1-2,22C32,65.7,23.3,57,18,44.1C15.3,37.6,13.9,31.3,14,26.3z"/>
		<circle class="st0" cx="59.6" cy="16.2" r="6.4"/>
		<circle class="st0" cx="47.8" cy="63.8" r="6.4"/>
		<circle class="st0" cx="12.1" cy="30.2" r="6.4"/>
	</g>
	<rect x="75.8" y="9.8" class="st0" width="2.4" height="60.3"/>
</g>
</svg>
