<?xml version="1.0" encoding="utf-8"?>
<!-- Generator: Adobe Illustrator 28.0.0, SVG Export Plug-In . SVG Version: 6.00 Build 0)  -->
<svg version="1.1" xmlns="http://www.w3.org/2000/svg" xmlns:xlink="http://www.w3.org/1999/xlink" x="0px" y="0px"
	 viewBox="0 0 1080 518" style="enable-background:new 0 0 1080 518;" xml:space="preserve">
<style type="text/css">
	.st0{fill:#14324F;}
	.st1{fill:#2CA01C;}
	.st2{fill:#FFFFFF;}
</style>
<g id="Layer_2">
	<rect class="st0" width="1080" height="518"/>
</g>
<g id="Layer_1">
	<g id="Layer_1_00000065060845087473561450000000582572727705328800_">
	</g>
	<g>
		<g>
			<path class="st1" d="M194.3,366.2c62.9,0,113.9-51,113.9-113.9c0-62.9-51-113.9-113.9-113.9c-62.9,0-113.9,51-113.9,113.9
				C80.4,315.2,131.4,366.2,194.3,366.2z"/>
		</g>
		<g>
			<path class="st2" d="M156.3,208.1c-24.5,0-44.3,19.8-44.3,44.3c0,24.5,19.8,44.3,44.3,44.3c2.1,0,4.2,0,6.3,0v-16.4h-6.3
				c-15.4,0-27.8-12.5-27.8-27.8s12.5-27.8,27.8-27.8h15.2c0,0,0,84.4,0,86c0,9.1,7.4,16.4,16.4,16.4V208.1
				C188,208.1,170.9,208.1,156.3,208.1z"/>
		</g>
		<g>
			<path class="st2" d="M232.3,296.6c24.5,0,44.3-19.8,44.3-44.3c0-24.5-19.8-44.3-44.3-44.3c-2.1,0-4.2,0-6.3,0v16.4h6.3
				c15.4,0,27.8,12.5,27.8,27.8s-12.5,27.8-27.8,27.8H217c0,0,0-84.4,0-86c0-9.1-7.4-16.4-16.4-16.4v118.9
				C200.6,296.6,217.6,296.6,232.3,296.6z"/>
		</g>
		<g>
			<path class="st2" d="M405.2,379.3h-15.8v-40h-0.3c-4.1,6.3-12.1,10.3-20.9,10.3c-19.2,0-31.1-15.3-31.1-33.7
				c0-18.7,12.6-33.2,30.7-33.2c11.6,0,18.7,5.7,21.9,10.7h0.4v-8.8h15.1L405.2,379.3L405.2,379.3z M371.3,336.4
				c11.6,0,18.6-10.4,18.6-20.3c0-9.9-7-20.5-18.6-20.5c-12.2,0-18.2,10.4-18.2,20.3C353.1,325.7,359.1,336.4,371.3,336.4z"/>
			<path class="st2" d="M405.2,379.5h-16v-40c-4.2,6.3-12.2,10.2-21,10.2c-9.2,0-17.2-3.5-22.9-10c-5.4-6.2-8.4-14.7-8.4-23.9
				c0-9.2,3.1-17.6,8.6-23.7c5.7-6.2,13.5-9.6,22.2-9.6c14,0,20.3,8,22,10.7h0.1v-8.8h15.5v95h-0.2V379.5z M389.6,379.1H405v-94.5
				h-14.8v8.8h-0.7l-0.1-0.1c-1.6-2.5-7.7-10.6-21.7-10.6c-17.7,0-30.5,13.9-30.5,33c0,19.4,13,33.5,30.9,33.5
				c8.8,0,16.7-3.9,20.8-10.2l0.1-0.1h0.6V379.1z M371.3,336.6c-4.9,0-9.1-1.7-12.3-4.9c-3.8-3.8-6-9.7-6-15.8
				c0-5.2,1.7-10.3,4.5-14c3.3-4.3,8.1-6.5,13.8-6.5c11.6,0,18.8,10.8,18.8,20.7C390.1,326.2,383.1,336.6,371.3,336.6z M371.3,295.8
				c-12.3,0-18,10.4-18,20.1c0,6,2.2,11.8,5.9,15.5c3.1,3.1,7.3,4.8,12.1,4.8c11.5,0,18.4-10.2,18.4-20.1
				C389.7,306.3,382.7,295.8,371.3,295.8z"/>
		</g>
		<g>
			<path class="st2" d="M476.1,347.7h-15v-10.2h-0.3c-2.8,6.3-10.3,12-19.6,12c-16.5,0-23.3-12.6-23.3-25.5v-39.5h15.8v35
				c0,7.5,1.7,16.8,11.9,16.8c10,0,14.8-8.7,14.8-17.1v-34.8h15.8V347.7z"/>
			<path class="st2" d="M441.2,349.7c-17.4,0-23.5-13.9-23.5-25.7v-39.7h16.2v35.2c0,11.1,3.9,16.7,11.7,16.7
				c10,0,14.6-8.8,14.6-16.9v-35h16.2v63.6h-15.4v-10.1C458.3,343.6,451.1,349.7,441.2,349.7z M418.1,284.7V324
				c0,11.7,6.1,25.4,23.1,25.4c9.8,0,16.9-6.2,19.4-11.9l0.1-0.1h0.6v10.2H476v-62.8h-15.4v34.6c0,8.3-4.7,17.3-14.9,17.3
				c-8,0-12-5.7-12-17v-34.8H418.1z"/>
		</g>
		<g>
			<path class="st2" d="M492,283.1h15.8v63.2H492V283.1z"/>
			<path class="st2" d="M508,346.5h-16.2v-63.6H508V346.5z M492.2,346.1h15.4v-62.8h-15.4V346.1z"/>
		</g>
		<g>
			<path class="st2" d="M566.9,302c-2.5-3.6-7.9-6.2-13-6.2c-11.6,0-17.4,10.4-17.4,20.3c0,9.9,5.9,20.3,17.9,20.3
				c4.9,0,10.3-2,13.3-5.7l9.9,10c-5.3,5.7-14,8.8-23.3,8.8c-18.7,0-34.2-12.4-34.2-33.4c0-20.5,15.3-33.4,33.9-33.4
				c9.2,0,18.8,3.7,23.8,9.9L566.9,302z"/>
			<path class="st2" d="M554.3,349.7c-20.3,0-34.4-13.8-34.4-33.6c0-9.9,3.5-18.4,10-24.6c6.2-5.8,14.7-9.1,24-9.1
				c9.7,0,19.1,3.9,24,9.9l0.1,0.1l-0.1,0.1l-11,9.6l-0.1-0.2c-2.5-3.5-7.9-6.1-12.9-6.1c-11.3,0-17.2,10.1-17.2,20.1
				c0,10,6.1,20.1,17.7,20.1c5.2,0,10.4-2.2,13.2-5.6l0.1-0.2l10.2,10.3l-0.1,0.1C572.5,346.4,563.8,349.7,554.3,349.7z
				 M553.9,282.9c-19.5,0-33.7,14-33.7,33.3c0,19.6,14,33.3,34.1,33.3c9.3,0,17.9-3.2,23.1-8.6l-9.6-9.7c-2.9,3.4-8.1,5.6-13.3,5.6
				c-11.9,0-18.1-10.3-18.1-20.5c0-10.2,6-20.5,17.6-20.5c5,0,10.5,2.6,13.1,6.1l10.5-9.2C572.6,286.6,563.4,282.9,553.9,282.9z"/>
		</g>
		<g>
			<path class="st2" d="M585.5,248.1h15.8v62.9h0.4l24-26.6h20.3l-27.4,28.6l29.1,34.6h-20.9l-25-32.4h-0.4v32.4h-15.8L585.5,248.1
				L585.5,248.1z"/>
			<path class="st2" d="M648.1,347.9h-21.4l-0.1-0.1l-25-32.3h-0.1v32.4h-16.2v-99.7h0.2V248h16v62.9h0.1l24-26.6h20.8l-27.6,28.8
				L648.1,347.9z M626.8,347.5h20.4l-29-34.4l27.2-28.4h-19.7l-24,26.6h-0.7v-62.9h-15.4v99.2h15.4v-32.4h0.7l0.1,0.1L626.8,347.5z"
				/>
		</g>
		<g>
			<path class="st2" d="M670.7,248.1v44.4h0.4c3.3-4.1,9.6-9.9,21.2-9.9c18,0,30.7,14.5,30.7,33.2c0,18.4-11.9,33.7-31.1,33.7
				c-8.8,0-17.4-4.1-21.7-11.3h-0.3v9.5h-15v-99.6H670.7z M688.7,295.6c-11.6,0-18.6,10.7-18.6,20.5s7,20.3,18.6,20.3
				c12.2,0,18.2-10.7,18.2-20.5C706.9,306,701,295.6,688.7,295.6z"/>
			<path class="st2" d="M691.9,349.8c-9.2,0-17.6-4.3-21.8-11.3v9.4h-15.4V248h16.2v44.4h0.1c5.3-6.6,12.5-9.9,21.3-9.9
				c8.7,0,16.6,3.4,22.2,9.6c5.6,6.1,8.6,14.6,8.6,23.7c0,9.2-3,17.7-8.4,23.9C709,346.3,701.1,349.8,691.9,349.8z M669.7,338.1h0.6
				l0.1,0.1c4.1,6.9,12.4,11.2,21.6,11.2c17.9,0,30.9-14.1,30.9-33.5c0-19.1-12.8-33-30.5-33c-8.7,0-15.8,3.3-21.1,9.8l-0.1,0.1
				h-0.7v-44.4h-15.4v99.2h14.6V338.1z M688.7,336.6c-11.7,0-18.8-10.4-18.8-20.5c0-10,7.2-20.7,18.8-20.7c5.7,0,10.5,2.3,13.8,6.5
				c2.9,3.7,4.5,8.8,4.5,14C707.1,326.1,700.8,336.6,688.7,336.6z M688.7,295.8c-11.4,0-18.4,10.6-18.4,20.4
				c0,9.9,6.9,20.1,18.4,20.1c11.8,0,18-10.2,18-20.4C706.7,306.2,701.1,295.8,688.7,295.8z"/>
		</g>
		<g>
			<path class="st2" d="M764.2,282.7c19.1,0,34.4,13.3,34.4,33.2c0,19.9-15.3,33.7-34.4,33.7s-34.4-13.8-34.4-33.7
				C729.8,296,745.1,282.7,764.2,282.7z M764.2,336.4c12.5,0,18.3-10.7,18.3-20.5c0-9.9-5.8-20.3-18.3-20.3
				c-12.5,0-18.3,10.4-18.3,20.3C745.9,325.7,751.7,336.4,764.2,336.4z"/>
			<path class="st2" d="M764.2,349.8c-9.4,0-18.1-3.4-24.5-9.5c-6.5-6.2-10.1-14.9-10.1-24.5c0-9.5,3.6-18.1,10.1-24.2
				c6.3-5.9,15-9.2,24.5-9.2s18.2,3.3,24.5,9.2c6.5,6.1,10.1,14.7,10.1,24.2c0,9.5-3.6,18.2-10.1,24.5
				C782.3,346.4,773.6,349.8,764.2,349.8z M764.2,282.9c-19.8,0-34.2,13.9-34.2,33c0,19.1,14.7,33.5,34.2,33.5
				c19.5,0,34.2-14.4,34.2-33.5C798.4,296.7,784,282.9,764.2,282.9z M764.2,336.6c-12.7,0-18.5-10.8-18.5-20.7
				c0-9.9,5.8-20.5,18.5-20.5s18.5,10.6,18.5,20.5C782.7,325.8,776.9,336.6,764.2,336.6z M764.2,295.8c-12.4,0-18.1,10.4-18.1,20.1
				c0,9.8,5.7,20.4,18.1,20.4s18.1-10.6,18.1-20.4C782.3,306.2,776.6,295.8,764.2,295.8z"/>
		</g>
		<g>
			<path class="st2" d="M839.8,282.7c19.1,0,34.4,13.3,34.4,33.2c0,19.9-15.3,33.7-34.4,33.7s-34.4-13.8-34.4-33.7
				C805.4,296,820.7,282.7,839.8,282.7z M839.8,336.4c12.5,0,18.3-10.7,18.3-20.5c0-9.9-5.8-20.3-18.3-20.3s-18.3,10.4-18.3,20.3
				C821.5,325.7,827.3,336.4,839.8,336.4z"/>
			<path class="st2" d="M839.8,349.8c-9.4,0-18.1-3.4-24.5-9.5c-6.5-6.2-10.1-14.9-10.1-24.5c0-9.5,3.6-18.1,10.1-24.2
				c6.3-5.9,15-9.2,24.5-9.2s18.2,3.3,24.5,9.2c6.5,6.1,10.1,14.7,10.1,24.2c0,9.5-3.6,18.2-10.1,24.5
				C857.9,346.4,849.2,349.8,839.8,349.8z M839.8,282.9c-19.8,0-34.2,13.9-34.2,33c0,19.1,14.7,33.5,34.2,33.5
				c19.5,0,34.2-14.4,34.2-33.5C874,296.7,859.6,282.9,839.8,282.9z M839.8,336.6c-5,0-9.3-1.7-12.5-4.9c-3.8-3.8-6-9.6-6-15.8
				c0-9.9,5.8-20.5,18.5-20.5s18.5,10.6,18.5,20.5C858.3,325.8,852.5,336.6,839.8,336.6z M839.8,295.8c-12.4,0-18.1,10.4-18.1,20.1
				c0,6.1,2.1,11.8,5.9,15.5c3.2,3.2,7.3,4.8,12.2,4.8c12.4,0,18.1-10.6,18.1-20.4C857.9,306.2,852.3,295.8,839.8,295.8z"/>
		</g>
		<g>
			<path class="st2" d="M883.8,248.1h15.8v62.9h0.4l24-26.6h20.3l-27.4,28.6l29.1,34.6H925l-25-32.4h-0.4v32.4h-15.8L883.8,248.1
				L883.8,248.1z"/>
			<path class="st2" d="M946.4,347.9h-21.4l-0.1-0.1l-25-32.3h-0.1v32.4h-16.2v-99.7h0.2V248h16v62.9h0.1l24-26.6h20.8l-27.6,28.8
				L946.4,347.9z M925.1,347.5h20.4l-29-34.4l27.2-28.4h-19.7l-24,26.6h-0.7v-62.9H884v99.2h15.4v-32.4h0.7l0.1,0.1L925.1,347.5z"/>
		</g>
		<g>
			<path class="st2" d="M989.1,301.4c-2.8-3.7-8-6.9-13.8-6.9c-5,0-10.2,1.8-10.2,6.9c0,4.9,4.9,6.2,13.7,8.3
				c9.4,2.2,20.4,6.4,20.4,18.8c0,15.4-12.5,21.1-26.3,21.1c-9.7,0-19.9-3.7-26-10.4l10.4-9.7c3.4,4.5,9.4,7.9,16.2,7.9
				c4.6,0,10.2-1.8,10.2-7.5c0-5.3-4.9-6.9-14.5-9.1c-9.4-2.2-18.7-6.1-18.7-17.9c0-14.1,12.6-20.1,25.2-20.1
				c9.1,0,18.6,3.2,23.7,9.6L989.1,301.4z"/>
			<path class="st2" d="M972.9,349.7c-10.3,0-20.3-4-26.1-10.5l-0.1-0.1l10.7-10l0.1,0.2c3.7,4.8,9.8,7.8,16,7.8
				c4.8,0,10-1.9,10-7.3c0-5-4.6-6.6-14.3-8.9c-9.3-2.2-18.9-6.1-18.9-18.1c0-6.5,2.8-11.9,8-15.5c4.5-3.1,10.7-4.8,17.4-4.8
				c10,0,19.1,3.7,23.9,9.7l0.1,0.1l-10.5,9.4l-0.1-0.2c-2.4-3.1-7.4-6.8-13.7-6.8c-4.8,0-10,1.8-10,6.7c0,4.7,4.6,6,13.5,8.1
				c9.6,2.3,20.6,6.5,20.6,19c0,7.2-2.7,12.8-8.1,16.5C986.8,348.1,980.4,349.7,972.9,349.7z M947.2,339.1
				c5.8,6.3,15.6,10.2,25.7,10.2c7.9,0,26.1-2,26.1-20.9c0-12.2-10.8-16.4-20.3-18.6c-9.1-2.2-13.8-3.5-13.8-8.5c0-5.2,5.3-7,10.3-7
				c6.4,0,11.4,3.6,13.9,6.8l10-8.8c-4.7-5.8-13.7-9.4-23.4-9.4c-11.5,0-25,5.2-25,19.9c0,11.7,9.4,15.5,18.6,17.7
				c9.1,2.1,14.6,3.7,14.6,9.3c0,5.7-5.3,7.7-10.3,7.7c-6.3,0-12.4-2.9-16.2-7.8L947.2,339.1z"/>
		</g>
		<g>
			<path class="st2" d="M510.2,198.2c0,16,12.8,27.7,29.1,27.7c16.3,0,29.2-11.7,29.2-27.7v-36.8h-15.8v34.9
				c0,8.7-5.8,14.4-13.4,14.4c-7.6,0-13.4-5.8-13.4-14.4v-34.9h-15.8L510.2,198.2z"/>
			<path class="st2" d="M539.4,226.1c-16.7,0-29.3-12-29.3-27.9l-0.1-37h16.2v35.1c0,8.4,5.4,14.3,13.2,14.3c7.7,0,13.2-6,13.2-14.3
				v-35.1h16.2v37C568.7,214.1,556.1,226.1,539.4,226.1z M510.3,161.6l0.1,36.6c0,15.7,12.4,27.6,28.9,27.6c16.5,0,29-11.8,29-27.6
				v-36.6h-15.4v34.7c0,8.5-5.7,14.6-13.6,14.6s-13.6-6.2-13.6-14.6v-34.7H510.3z"/>
		</g>
		<g>
			<path class="st2" d="M610.7,176.2h18.8v48.5h15.8v-48.5h18.8v-14.8h-53.5V176.2z"/>
			<path class="st2" d="M645.5,224.9h-16.2v-48.5h-18.8v-15.2h53.8v15.2h-18.8V224.9z M629.8,224.5h15.4V176H664v-14.4h-53.1V176
				h18.8V224.5z"/>
		</g>
		<g>
			<path class="st2" d="M600.5,161.4h-15.8v63.3h15.8V161.4z"/>
			<path class="st2" d="M600.7,224.9h-16.2v-63.7h16.2V224.9z M584.9,224.5h15.4v-62.9h-15.4V224.5z"/>
		</g>
		<g>
			<path class="st2" d="M446.5,176.2h18.8v48.5h15.8v-48.5h18.8v-14.8h-53.5V176.2z"/>
			<path class="st2" d="M481.3,224.9h-16.2v-48.5h-18.8v-15.2h53.8v15.2h-18.8V224.9z M465.5,224.5h15.4V176h18.8v-14.4h-53.1V176
				h18.8V224.5z"/>
		</g>
		<g>
			<path class="st2" d="M363.7,161.4h-15.8v63.3h15.8V193V161.4z"/>
			<path class="st2" d="M363.8,224.9h-16.2v-63.7h16.2V224.9z M348.1,224.5h15.4v-62.9h-15.4V224.5z"/>
		</g>
		<g>
			<path class="st2" d="M438.2,187.9c0-16-12.9-27.7-29.2-27.7c-16.3,0-29.2,11.7-29.2,27.7v36.8h15.8v-34.9
				c0-8.7,5.8-14.4,13.4-14.4c7.6,0,13.4,5.8,13.4,14.4v34.9h15.8L438.2,187.9z"/>
			<path class="st2" d="M438.4,224.9h-16.2v-35.1c0-8.3-5.6-14.3-13.2-14.3s-13.2,6-13.2,14.3v35.1h-16.2v-37
				c0-15.9,12.6-27.9,29.3-27.9c16.7,0,29.3,12,29.3,27.9L438.4,224.9z M422.6,224.5H438l0-36.6c0-15.7-12.5-27.6-29-27.6
				c-16.5,0-29,11.8-29,27.6v36.6h15.4v-34.7c0-8.5,5.7-14.6,13.6-14.6s13.6,6.2,13.6,14.6V224.5z"/>
		</g>
	</g>
</g>
</svg>
