<?xml version="1.0" encoding="utf-8"?>
<!-- Generator: Adobe Illustrator 28.0.0, SVG Export Plug-In . SVG Version: 6.00 Build 0)  -->
<svg version="1.1" id="Layer_1" xmlns="http://www.w3.org/2000/svg" xmlns:xlink="http://www.w3.org/1999/xlink" x="0px" y="0px"
	 viewBox="0 0 1080 518" style="enable-background:new 0 0 1080 518;" xml:space="preserve">
<style type="text/css">
	.st0{fill:#B1B2B3;}
	
		.st1{clip-path:url(#SVGID_00000025409232756484436930000005190369460740954755_);fill:url(#SVGID_00000150097471796006280410000010583839821292674432_);}
	
		.st2{clip-path:url(#SVGID_00000169533452629527174970000004061301529164390578_);fill-rule:evenodd;clip-rule:evenodd;fill:#FFFFFF;}
	.st3{clip-path:url(#SVGID_00000169533452629527174970000004061301529164390578_);fill:#919292;}
	.st4{clip-path:url(#SVGID_00000169533452629527174970000004061301529164390578_);fill:#DADADA;}
	
		.st5{clip-path:url(#SVGID_00000109723333104020035720000002349960143774212247_);fill:url(#SVGID_00000093163012266505377220000005196508345428537513_);}
	.st6{clip-path:url(#SVGID_00000058585499953969253350000015782987062743700378_);fill:#FFFFFF;}
	.st7{fill:#012A87;}
	.st8{fill:#0070F2;}
	.st9{fill:#1C90FF;}
	.st10{fill:#4DB1FF;}
</style>
<g id="Layer_1_00000065060845087473561450000000582572727705328800_">
</g>
<g>
	<polygon class="st0" points="270,100.7 270,297.5 810,417.4 810,220.5 	"/>
	<g>
		<defs>
			<polygon id="SVGID_1_" points="270,100.6 270,297.5 471.1,297.5 667.9,100.6 			"/>
		</defs>
		<clipPath id="SVGID_00000083055549570682531990000016459945317508986510_">
			<use xlink:href="#SVGID_1_"  style="overflow:visible;"/>
		</clipPath>
		
			<linearGradient id="SVGID_00000145053689659843795410000009044829328147832739_" gradientUnits="userSpaceOnUse" x1="-2208.9204" y1="1477.7943" x2="-2185.8308" y2="1477.7943" gradientTransform="matrix(-4.000000e-07 8.5259 8.5259 4.000000e-07 -12130.5557 18933.6797)">
			<stop  offset="0" style="stop-color:#00B1EB"/>
			<stop  offset="0.1927" style="stop-color:#009CDB"/>
			<stop  offset="0.5148" style="stop-color:#0080C6"/>
			<stop  offset="0.7949" style="stop-color:#006EB9"/>
			<stop  offset="1" style="stop-color:#0068B4"/>
		</linearGradient>
		
			<rect x="270" y="100.6" style="clip-path:url(#SVGID_00000083055549570682531990000016459945317508986510_);fill:url(#SVGID_00000145053689659843795410000009044829328147832739_);" width="397.9" height="196.9"/>
	</g>
	<g>
		<defs>
			<rect id="SVGID_00000129885355766860067780000016466120239479900346_" x="270" y="100.6" width="540" height="316.7"/>
		</defs>
		<clipPath id="SVGID_00000078756437319265939520000001167853139850350270_">
			<use xlink:href="#SVGID_00000129885355766860067780000016466120239479900346_"  style="overflow:visible;"/>
		</clipPath>
		
			<path style="clip-path:url(#SVGID_00000078756437319265939520000001167853139850350270_);fill-rule:evenodd;clip-rule:evenodd;fill:#FFFFFF;" d="
			M506.2,137.7l-39.2,0v93.1l-34.2-93.1h-33.9l-29.2,77.9c-3.1-19.6-23.4-26.4-39.4-31.5c-10.6-3.4-21.8-8.4-21.6-13.9
			c0.1-4.5,6-8.7,17.7-8.1c7.9,0.4,14.8,1.1,28.7,7.7l13.6-23.7c-12.6-6.4-30.1-10.5-44.4-10.5h-0.1c-16.7,0-30.6,5.4-39.2,14.3
			c-6,6.2-9.3,14.1-9.4,22.9c-0.2,12,4.2,20.5,13.4,27.3c7.8,5.7,17.8,9.5,26.6,12.2c10.9,3.4,19.7,6.3,19.6,12.5
			c-0.1,2.3-0.9,4.4-2.6,6.1c-2.7,2.8-6.9,3.9-12.6,4c-11.1,0.2-19.3-1.5-32.4-9.3l-12.1,24c13.1,7.4,28.5,11.8,44.3,11.8l2,0
			c13.8-0.3,24.8-4.2,33.7-11.3c0.5-0.4,1-0.8,1.4-1.2l-3.9,10.5h35.6l6-18.2c6.2,2.1,13.3,3.3,20.9,3.3c7.4,0,14.3-1.1,20.4-3.1
			l5.7,18h58v-37.6h12.7c30.6,0,48.7-15.6,48.7-41.7C561.2,151,543.6,137.7,506.2,137.7 M415.6,217.4c-4.5,0-8.8-0.8-12.5-2.2
			l12.4-39.2h0.2l12.2,39.3C424.3,216.6,420.1,217.4,415.6,217.4 M508.5,194.9h-8.6v-31.6h8.6c11.5,0,20.7,3.8,20.7,15.6
			C529.2,191,520,194.9,508.5,194.9"/>
		<polygon style="clip-path:url(#SVGID_00000078756437319265939520000001167853139850350270_);fill:#919292;" points="376.5,403.9 
			386.4,403.9 386.4,405.9 382.7,405.9 382.7,417.3 380.3,417.3 380.3,405.9 376.5,405.9 		"/>
		<polygon style="clip-path:url(#SVGID_00000078756437319265939520000001167853139850350270_);fill:#919292;" points="400,406.7 
			400,406.7 396.1,417.3 394.1,417.3 390.3,406.7 390.2,406.7 390.2,417.3 387.9,417.3 387.9,403.9 391.5,403.9 395.1,413.8 
			398.8,403.9 402.4,403.9 402.4,417.3 400,417.3 		"/>
		<polygon style="clip-path:url(#SVGID_00000078756437319265939520000001167853139850350270_);fill:#DADADA;" points="608.9,220.5 
			412,417.3 418.7,414.6 610,223.3 807.2,223.3 810,220.5 		"/>
	</g>
	<g>
		<defs>
			<polygon id="SVGID_00000123420593728634376820000010997963698080839309_" points="807.2,223.3 610,223.3 418.7,414.6 412,417.3 
				810,417.3 810,220.5 			"/>
		</defs>
		<clipPath id="SVGID_00000101808520332924563740000015775305410771739786_">
			<use xlink:href="#SVGID_00000123420593728634376820000010997963698080839309_"  style="overflow:visible;"/>
		</clipPath>
		
			<linearGradient id="SVGID_00000165933164604751686230000018310191762856554430_" gradientUnits="userSpaceOnUse" x1="-2195.4766" y1="1493.7441" x2="-2172.3884" y2="1493.7441" gradientTransform="matrix(-4.000000e-07 8.5254 8.5254 4.000000e-07 -12123.8408 18937.918)">
			<stop  offset="0" style="stop-color:#D9DADA"/>
			<stop  offset="0.2803" style="stop-color:#BEBEBE"/>
			<stop  offset="0.8819" style="stop-color:#787878"/>
			<stop  offset="1" style="stop-color:#6A6A69"/>
		</linearGradient>
		
			<rect x="412" y="220.5" style="clip-path:url(#SVGID_00000101808520332924563740000015775305410771739786_);fill:url(#SVGID_00000165933164604751686230000018310191762856554430_);" width="398" height="196.8"/>
	</g>
	<g>
		<defs>
			<rect id="SVGID_00000155835092731852025970000017597275016286578089_" x="270" y="100.6" width="540" height="316.7"/>
		</defs>
		<clipPath id="SVGID_00000171703176943338666020000017943946602855866548_">
			<use xlink:href="#SVGID_00000155835092731852025970000017597275016286578089_"  style="overflow:visible;"/>
		</clipPath>
		<path style="clip-path:url(#SVGID_00000171703176943338666020000017943946602855866548_);fill:#FFFFFF;" d="M644.1,318.5
			c-2.5,0-4.8-0.3-6.9-0.9c-2.1-0.6-3.9-1.4-5.6-2.4c-1.7-1-3.1-2.2-4.3-3.6c-1.2-1.4-2.3-3-3.2-4.7l7.8-4.7
			c1.3,2.6,3.1,4.6,5.3,5.9c2.2,1.4,4.7,2.1,7.4,2.1c2.4,0,4.4-0.4,5.9-1.3c1.5-0.9,2.3-2.2,2.3-4.1c0-1.8-0.8-3.1-2.4-4.1
			c-1.6-1-4-1.9-7.1-2.7c-2.1-0.6-4.2-1.2-6.2-1.8c-2-0.6-3.9-1.5-5.5-2.5c-1.6-1-2.9-2.3-3.9-3.9c-1-1.6-1.5-3.6-1.5-6.1
			c0-2.2,0.4-4.2,1.2-5.9c0.8-1.8,2-3.2,3.5-4.4c1.5-1.2,3.3-2.1,5.3-2.7c2.1-0.6,4.4-0.9,7-0.9c2.4,0,4.6,0.3,6.5,0.8
			c1.9,0.5,3.6,1.2,5.2,2.1c1.5,0.9,2.9,1.9,4,3.1c1.1,1.2,2.1,2.4,3,3.6l-7.2,5.4c-1.2-2-2.9-3.6-5-4.8c-2.1-1.2-4.3-1.8-6.6-1.8
			c-2.2,0-3.9,0.4-5,1.3c-1.2,0.9-1.8,2-1.8,3.4c0,1.8,0.8,3.2,2.5,4.2c1.7,0.9,4.1,1.8,7.2,2.6c2.1,0.6,4.1,1.2,6.2,1.8
			c2,0.7,3.9,1.5,5.5,2.6c1.6,1.1,2.9,2.4,3.9,4c1,1.6,1.5,3.6,1.5,6c0,1.9-0.4,3.7-1.1,5.4c-0.7,1.7-1.9,3.2-3.4,4.6
			c-1.5,1.3-3.5,2.4-5.8,3.1C650.2,318.1,647.4,318.5,644.1,318.5"/>
		<path style="clip-path:url(#SVGID_00000171703176943338666020000017943946602855866548_);fill:#FFFFFF;" d="M667.7,270.9H678v8.2
			h-10.3V270.9z M667.7,283.7h10.2v33.9h-10.2V283.7z"/>
		
			<rect x="683.4" y="270.6" style="clip-path:url(#SVGID_00000171703176943338666020000017943946602855866548_);fill:#FFFFFF;" width="10.2" height="47.1"/>
		<polygon style="clip-path:url(#SVGID_00000171703176943338666020000017943946602855866548_);fill:#FFFFFF;" points="708.6,317.7 
			696.5,283.7 707,283.7 714.1,306.3 714.2,306.3 721.4,283.7 731,283.7 718.9,317.7 		"/>
		<path style="clip-path:url(#SVGID_00000171703176943338666020000017943946602855866548_);fill:#FFFFFF;" d="M747.6,318.4
			c-2.2,0-4.4-0.3-6.4-0.9c-2.1-0.6-3.9-1.6-5.5-3c-1.6-1.4-2.9-3.2-3.9-5.4c-1-2.3-1.5-5-1.5-8.3c0-3.3,0.6-6.1,1.7-8.3
			c1.1-2.2,2.5-4,4.2-5.4c1.7-1.4,3.5-2.4,5.5-3c2-0.6,3.8-0.9,5.6-0.9c1.7,0,3.5,0.3,5.4,0.8c1.8,0.5,3.5,1.5,5,2.9
			c1.5,1.4,2.7,3.3,3.7,5.7c1,2.4,1.5,5.6,1.5,9.4v1.5h-22.4c0.3,2.8,1.1,4.8,2.5,6c1.4,1.2,3.2,1.8,5.4,1.8c2,0,3.9-0.4,5.7-1.2
			c1.8-0.8,3.2-1.8,4.4-2.8l3.9,6.1C758.3,316.6,753.4,318.4,747.6,318.4 M753.7,297.4c-0.5-4.7-2.7-7.1-6.5-7.1
			c-1.6,0-3,0.5-4.2,1.6c-1.2,1.1-2.1,2.9-2.4,5.4H753.7z"/>
		<path style="clip-path:url(#SVGID_00000171703176943338666020000017943946602855866548_);fill:#FFFFFF;" d="M767.2,317.6v-33.9
			h10.2v5.7h0.1c0.5-0.7,1-1.5,1.7-2.2c0.6-0.7,1.5-1.4,2.4-2c0.9-0.6,2-1.1,3.2-1.5c1.2-0.4,2.6-0.6,4.2-0.6h0.3l-0.2,9.1
			c-0.2,0-0.6-0.1-1.2-0.1c-0.6,0-1.1-0.1-1.5-0.1c-2,0-3.8,0.5-5.3,1.4c-1.5,0.9-2.7,2-3.7,3.2v21H767.2z"/>
		<path style="clip-path:url(#SVGID_00000171703176943338666020000017943946602855866548_);fill:#FFFFFF;" d="M566.6,379.5v-47h17.1
			c2.5,0,4.9,0.2,7.2,0.6c2.3,0.4,4.4,1.2,6.2,2.3c1.8,1.1,3.2,2.7,4.2,4.6c1.1,1.9,1.6,4.5,1.6,7.6c0,3.2-0.6,5.7-1.7,7.7
			c-1.1,2-2.6,3.5-4.5,4.6c-1.8,1.1-3.9,1.9-6.2,2.3c-2.3,0.4-4.6,0.6-7,0.6h-6.7v16.7H566.6z M576.9,354.8h7.1
			c3.2,0,5.5-0.6,6.8-1.8c1.3-1.2,2-2.9,2-5.2c0-2.2-0.6-3.9-2-5.1c-1.3-1.2-3.6-1.8-6.9-1.8h-7.1V354.8z"/>
		<path style="clip-path:url(#SVGID_00000171703176943338666020000017943946602855866548_);fill:#FFFFFF;" d="M613.1,380
			c-1.3,0-2.6-0.2-3.7-0.6c-1.2-0.4-2.2-1-3.1-1.8c-0.9-0.8-1.6-1.7-2.1-2.9c-0.5-1.2-0.8-2.4-0.8-3.9c0-3.9,1.7-6.9,5.1-9.1
			c3.4-2.2,8.9-3.6,16.3-4.2v-0.8c0-1.2-0.3-2.2-1-3c-0.7-0.7-1.9-1.1-3.5-1.1c-2.1,0-4.2,0.4-6,1.2c-1.8,0.8-3.6,1.8-5.1,3
			l-4.3-5.9c0.8-0.7,1.8-1.5,2.9-2.2c1.1-0.7,2.3-1.4,3.6-2c1.4-0.6,2.9-1,4.6-1.4c1.7-0.3,3.6-0.5,5.7-0.5c4.7,0,8,1.1,10,3.4
			c2,2.2,3,5.5,3,9.9v13c0,2,0.1,3.7,0.2,5c0.1,1.3,0.4,2.4,0.7,3.2h-10.2c-0.2-0.7-0.4-1.5-0.5-2.3c-0.2-0.8-0.2-1.7-0.2-2.7
			c-1.6,1.8-3.3,3.1-5.2,4.1C617.9,379.6,615.7,380,613.1,380 M617.2,372.4c1.8,0,3.3-0.3,4.6-0.8c1.3-0.6,2.3-1.3,3.2-2.1v-6.3
			c-4.1,0.4-7,1.1-8.8,2.1s-2.7,2.3-2.7,3.9c0,1.1,0.3,1.9,1,2.4C615.2,372.1,616.1,372.4,617.2,372.4"/>
		<path style="clip-path:url(#SVGID_00000171703176943338666020000017943946602855866548_);fill:#FFFFFF;" d="M640.8,379.5v-33.9
			H651v5.7h0.1c0.5-0.7,1-1.5,1.7-2.2c0.6-0.7,1.5-1.4,2.4-2c0.9-0.6,2-1.1,3.2-1.5c1.2-0.4,2.6-0.6,4.2-0.6h0.3l-0.2,9.1
			c-0.2,0-0.6-0.1-1.2-0.1c-0.6,0-1.1-0.1-1.5-0.1c-2,0-3.8,0.5-5.3,1.4c-1.5,0.9-2.7,2-3.7,3.2v21H640.8z"/>
		<path style="clip-path:url(#SVGID_00000171703176943338666020000017943946602855866548_);fill:#FFFFFF;" d="M683.1,380
			c-2.5,0-4.5-0.2-6-0.7c-1.5-0.4-2.7-1.1-3.5-1.9c-0.8-0.9-1.3-1.9-1.6-3.1c-0.3-1.2-0.4-2.7-0.4-4.3v-16.9H666v-7.5h5.6V334h10.2
			v11.6h8.7v7.5h-8.7v14.7c0,1.8,0.3,3.1,0.9,3.7c0.6,0.7,1.9,1,3.7,1c0.6,0,1.2,0,1.9-0.1c0.6-0.1,1.2-0.2,1.5-0.3v7.3
			c-0.2,0-0.6,0.1-1.1,0.2c-0.5,0.1-1.1,0.1-1.8,0.2c-0.6,0-1.3,0.1-2,0.1C684.3,380,683.7,380,683.1,380"/>
		<path style="clip-path:url(#SVGID_00000171703176943338666020000017943946602855866548_);fill:#FFFFFF;" d="M694.5,379.5v-33.9
			h10.3v5.3c0.5-0.6,1.1-1.3,1.8-2c0.7-0.7,1.6-1.4,2.5-1.9c1-0.6,2.1-1.1,3.3-1.5c1.2-0.4,2.6-0.6,4-0.6c1.4,0,2.7,0.2,4,0.6
			c1.2,0.4,2.2,0.9,3.1,1.8c0.9,0.8,1.5,1.8,2,3c0.5,1.2,0.7,2.7,0.7,4.5v24.7h-10.2v-21.5c0-1.5-0.3-2.7-0.9-3.5
			c-0.6-0.8-1.6-1.2-3.1-1.2c-1.3,0-2.6,0.3-3.8,1c-1.2,0.6-2.4,1.5-3.5,2.4v22.7H694.5z"/>
		<path style="clip-path:url(#SVGID_00000171703176943338666020000017943946602855866548_);fill:#FFFFFF;" d="M747.6,380.3
			c-2.2,0-4.4-0.3-6.4-0.9c-2.1-0.6-3.9-1.6-5.5-3c-1.6-1.4-2.9-3.2-3.9-5.4c-1-2.3-1.5-5-1.5-8.3c0-3.3,0.6-6.1,1.7-8.3
			c1.1-2.2,2.5-4,4.2-5.4c1.7-1.4,3.5-2.4,5.5-3c2-0.6,3.9-0.9,5.6-0.9c1.7,0,3.5,0.3,5.4,0.8c1.8,0.5,3.5,1.5,5,2.9
			c1.5,1.4,2.7,3.3,3.7,5.7c1,2.4,1.5,5.6,1.5,9.4v1.5h-22.4c0.3,2.8,1.1,4.8,2.5,6c1.4,1.2,3.2,1.8,5.4,1.8c2,0,3.9-0.4,5.7-1.2
			c1.8-0.8,3.2-1.8,4.4-2.8l3.9,6.1C758.3,378.5,753.4,380.3,747.6,380.3 M753.7,359.3c-0.5-4.7-2.7-7.1-6.5-7.1
			c-1.6,0-3,0.5-4.2,1.6c-1.2,1.1-2.1,2.9-2.4,5.4H753.7z"/>
		<path style="clip-path:url(#SVGID_00000171703176943338666020000017943946602855866548_);fill:#FFFFFF;" d="M767.2,379.5v-33.9
			h10.2v5.7h0.1c0.5-0.7,1-1.5,1.7-2.2c0.6-0.7,1.5-1.4,2.4-2c0.9-0.6,2-1.1,3.2-1.5c1.2-0.4,2.6-0.6,4.2-0.6h0.3l-0.2,9.1
			c-0.2,0-0.6-0.1-1.2-0.1c-0.6,0-1.1-0.1-1.5-0.1c-2,0-3.8,0.5-5.3,1.4c-1.5,0.9-2.7,2-3.7,3.2v21H767.2z"/>
	</g>
</g>
<g>
	<rect y="507.1" class="st7" width="270" height="10.9"/>
	<rect x="270" y="507.1" class="st8" width="270" height="10.9"/>
	<rect x="540" y="507.1" class="st9" width="270" height="10.9"/>
	<rect x="810" y="507.1" class="st10" width="270" height="10.9"/>
</g>
</svg>
