<?xml version="1.0" encoding="utf-8"?>
<!-- Generator: Adobe Illustrator 28.0.0, SVG Export Plug-In . SVG Version: 6.00 Build 0)  -->
<svg version="1.1" xmlns="http://www.w3.org/2000/svg" xmlns:xlink="http://www.w3.org/1999/xlink" x="0px" y="0px"
	 viewBox="0 0 1080 518" style="enable-background:new 0 0 1080 518;" xml:space="preserve">
<style type="text/css">
	.st0{fill:#012A87;}
	.st1{fill:none;stroke:#000000;stroke-miterlimit:10;}
	.st2{fill:#0057D2;}
	.st3{fill:#0070F2;}
	.st4{fill:#1C90FF;}
	.st5{fill:#4DB1FF;}
	.st6{fill:#FFFFFF;}
	.st7{fill-rule:evenodd;clip-rule:evenodd;fill:url(#SVGID_1_);}
	.st8{fill-rule:evenodd;clip-rule:evenodd;fill:#FFFFFF;}
	.st9{fill:#225FBC;}
</style>
<g id="Layer_1">
</g>
<g id="Layer_3">
	<rect class="st0" width="1080" height="518"/>
</g>
<g id="Layer_2">
	<g>
		<polygon class="st1" points="909.4,76.5 837.8,148.3 755.3,231 661,325.6 545.4,441.5 169.2,441.5 169.2,76.5 		"/>
		<polygon class="st2" points="909.4,76.5 837.8,148.3 755.3,231 661,325.6 545.4,441.5 169.2,441.5 169.2,76.5 		"/>
		<polygon class="st3" points="837.8,148.3 755.3,231 661,325.6 545.4,441.5 243.2,441.5 243.2,148.3 		"/>
		<polygon class="st4" points="755.3,231 661,325.6 545.4,441.5 328.4,441.5 328.4,231 		"/>
		<polygon class="st5" points="661,325.6 545.4,441.5 423.8,441.5 423.8,325.6 		"/>
	</g>
	<g>
		<path class="st6" d="M181.6,178.2l-11.8,3.2c-1.8-7.6-6-11.4-12.5-11.4c-3.9,0-6.9,0.9-9,2.8c-1.8,1.6-2.6,3.7-2.6,6.3
			c0,3.3,1,5.8,3,7.5c1.8,1.5,5.1,2.9,9.8,4.2l3.7,1.1c8.2,2.2,13.8,5.1,16.8,8.8c2.4,2.9,3.7,6.9,3.7,11.9c0,6.8-2.4,12-7.2,15.7
			c-4.4,3.4-10.4,5.1-18,5.1c-7.4,0-13.3-1.7-17.9-5.1c-4.1-3.1-7-7.4-8.5-13l11.6-3.7c1,4.3,2.9,7.6,5.7,9.8
			c2.4,1.9,5.4,2.9,8.8,2.9c8.9,0,13.4-3.3,13.4-10c0-3.3-1-5.8-2.9-7.5c-1.9-1.6-5.5-3.2-10.7-4.6l-3.6-1.1
			c-7.8-2.3-13.1-5.3-16-8.8c-2.4-3-3.7-7.1-3.7-12.2c0-5.9,2.3-10.6,6.9-14.2c4.2-3.3,9.7-4.9,16.5-4.9
			C169.7,160.7,177.9,166.5,181.6,178.2z"/>
		<path class="st6" d="M220.8,161.9l21.6,69.9h-12.7l-5.9-20.5h-21.5l-6,20.5h-11.5l21.4-69.9H220.8z M221.5,202.3l-4.1-14.2
			c-0.5-2-1.9-7.7-4.1-17.2h-0.8c-1.5,6.5-2.9,12.2-4.3,17.1l-3.8,14.3H221.5z"/>
		<path class="st6" d="M248.3,161.9h24.7c16.6,0,24.9,6.7,24.9,20c0,7-2.5,12.2-7.4,15.8c-4.4,3.2-10.5,4.8-18.3,4.8h-11.8v29.3
			h-12.1V161.9z M260.4,171v22.4h11.4c9.2,0,13.8-3.8,13.8-11.4c0-7.3-4.4-11-13.3-11H260.4z"/>
		<path class="st6" d="M327.4,161.9h23.4c11.4,0,19.9,3.2,25.6,9.6c5.1,5.8,7.7,14.1,7.7,24.9c0,12.3-3.6,21.5-10.8,27.7
			c-6,5.2-14,7.7-24.1,7.7h-21.8V161.9z M339.4,171.3v51.2h9.5c7.6,0,13.2-2.3,17-7c3.5-4.4,5.3-10.7,5.3-18.9
			c0-16.8-7.2-25.2-21.6-25.2H339.4z"/>
		<path class="st6" d="M403.1,161.9v11.6h-12.3v-11.6H403.1z M402.6,182.4v49.5h-11.4v-49.5H402.6z"/>
		<path class="st6" d="M455.3,175.5l-0.7,9.1c-2.5,0-4.4,0.2-5.8,0.7c-1,0.4-2.1,1-3.1,1.9c2.7,2.8,4,6.1,4,9.9
			c0,5.4-2.1,9.6-6.2,12.5c-3.5,2.5-7.9,3.8-13.3,3.8c-2.3,0-4.4-0.3-6.4-0.8c-2.4,1.2-3.6,2.6-3.6,4.3c0,1.2,0.5,2,1.5,2.5
			c1,0.5,2.8,0.9,5.4,1.1l11.2,0.9c6.6,0.6,11.3,2.2,13.9,4.6c2.1,2,3.2,4.7,3.2,8.2c0,4.8-2.4,8.5-7.3,11.3
			c-4.4,2.5-10.3,3.7-17.6,3.7c-7.5,0-13.3-1.2-17.2-3.7c-3.3-2.1-5-4.9-5-8.3c0-4.2,3-7.4,9.1-9.6c-4.6-1-7-3.4-7-7.1
			c0-3.7,2.5-7.1,7.6-10.3c-4.7-3-7-7.3-7-13.1c0-5.1,2.1-9.1,6.2-12.1c3.5-2.6,7.9-3.8,13.2-3.8c4.1,0,7.6,0.8,10.5,2.4
			c1.7-3.1,3.8-5.3,6.2-6.5C449.2,176.1,451.9,175.5,455.3,175.5z M424.3,229c-4.4,1.4-6.6,3.7-6.6,6.7c0,2.3,1.4,4,4.2,5.3
			c2.4,1.1,5.5,1.6,9.4,1.6c4.9,0,8.7-0.7,11.3-2.2c2.1-1.2,3.1-2.6,3.1-4.4c0-1.9-0.7-3.2-2-4c-1.3-0.8-3.7-1.4-7.1-1.7L424.3,229z
			 M430.4,188c-2.8,0-5,0.9-6.7,2.7c-1.5,1.6-2.2,3.7-2.2,6.3c0,3.3,1,5.8,2.9,7.6c1.6,1.4,3.6,2.2,6.1,2.2c2.9,0,5.1-0.9,6.8-2.8
			c1.5-1.7,2.2-4,2.2-6.9c0-3-1-5.3-2.9-7C434.8,188.7,432.8,188,430.4,188z"/>
		<path class="st6" d="M472.2,161.9v11.6H460v-11.6H472.2z M471.8,182.4v49.5h-11.4v-49.5H471.8z"/>
		<path class="st6" d="M495.3,166.2v16.1h11.1v8.3h-11.1v27.1c0,4.8,2,7.1,6.1,7.1c2.2,0,4.1-0.2,5.8-0.6l-0.4,8.1
			c-2.5,0.4-5.4,0.6-8.8,0.6c-5,0-8.6-1.2-10.8-3.6c-2-2.1-2.9-5.3-2.9-9.5v-29.2h-7.4v-8.3h7.4v-13.6L495.3,166.2z"/>
		<path class="st6" d="M510,194.8c2.6-9.1,9.4-13.6,20.5-13.6c12.8,0,19.2,5.5,19.2,16.4v19.6c0,4.8,0.3,9.7,0.8,14.6h-10.4
			c-0.3-1.8-0.6-4-0.8-6.5c-3.5,5.1-8.7,7.7-15.6,7.7c-4.9,0-8.7-1.5-11.5-4.5c-2.5-2.6-3.7-6-3.7-10.2c0-8.8,5.4-14.2,16.1-16.3
			c4-0.8,8.7-1.2,14.1-1.4v-2.8c0-3.3-0.8-5.6-2.3-7c-1.3-1.2-3.4-1.8-6.2-1.8c-2.6,0-4.7,0.8-6.4,2.5c-1.6,1.5-2.6,3.6-3,6.2
			L510,194.8z M538.7,207.6c-3.8,0.1-7.6,0.6-11.4,1.5c-5.4,1.3-8.1,4.1-8.1,8.4c0,5,2.6,7.5,7.9,7.5c4.8,0,8.7-2.7,11.5-8.1V207.6z
			"/>
		<path class="st6" d="M570.8,160.6v71.2h-11.4v-71.2H570.8z"/>
		<path class="st6" d="M205.1,270V340h-11.6v-35.3c0-5.4,0.1-13.6,0.2-24.7h-1.3c-2.3,10.1-4.2,18.1-5.8,23.8l-9.5,36.2h-14.2
			l-9.2-35.8c-0.6-2.1-2.5-10.2-5.9-24.2h-1.3c0.2,8.1,0.3,16.4,0.3,24.9V340h-10.7V270h19.8l8.8,35.7c2,7.9,3.7,15.6,5.1,23.1h1.3
			c0.5-2,1.4-6,2.8-12.1c1-4.4,1.9-8,2.6-10.8l8.9-35.9H205.1z"/>
		<path class="st6" d="M214.8,303c2.6-9.1,9.4-13.6,20.5-13.6c12.8,0,19.2,5.5,19.2,16.4v19.6c0,4.8,0.3,9.7,0.8,14.6h-10.4
			c-0.3-1.8-0.6-4-0.8-6.5c-3.5,5.1-8.7,7.7-15.6,7.7c-4.9,0-8.7-1.5-11.5-4.5c-2.5-2.6-3.7-6-3.7-10.2c0-8.8,5.4-14.2,16.1-16.3
			c4-0.8,8.7-1.2,14.1-1.4v-2.8c0-3.3-0.8-5.6-2.3-7c-1.3-1.2-3.4-1.8-6.2-1.8c-2.6,0-4.7,0.8-6.4,2.5c-1.6,1.5-2.6,3.6-3,6.2
			L214.8,303z M243.5,315.7c-3.8,0.1-7.6,0.6-11.4,1.5c-5.4,1.3-8.1,4.1-8.1,8.4c0,5,2.6,7.5,7.9,7.5c4.8,0,8.7-2.7,11.5-8.1V315.7z
			"/>
		<path class="st6" d="M275.2,290.5v8.7c2.2-3.2,4.8-5.7,7.7-7.4c2.7-1.6,5.6-2.3,8.5-2.3c4.5,0,8,1.5,10.6,4.4
			c2.3,2.6,3.5,6.1,3.5,10.5V340H294v-32.5c0-5.5-2.3-8.3-6.9-8.3c-2.1,0-4.3,0.9-6.5,2.6c-1.9,1.5-3.6,3.4-5,5.9V340h-11.4v-49.5
			H275.2z"/>
		<path class="st6" d="M356.5,290.5V340h-11v-8.5c-1.9,3.2-4.4,5.7-7.4,7.5c-2.7,1.6-5.6,2.3-8.6,2.3c-4.5,0-8-1.4-10.6-4.1
			c-2.4-2.6-3.7-6.1-3.7-10.5v-36.1h11.6v32.9c0,5.4,2.3,8.1,7,8.1c2.2,0,4.5-0.9,6.8-2.7c1.9-1.6,3.5-3.5,4.7-5.8v-32.5H356.5z"/>
		<path class="st6" d="M392.1,269.3l-1.3,8.1c-1.9-0.3-3.3-0.4-4-0.4c-4,0-5.9,2.3-5.9,6.8v6.7h10.3v8.2h-10.3V340h-11.3v-41.3h-8
			v-8.2h8v-7.4c0-9.6,4.9-14.3,14.8-14.3C386.9,268.8,389.5,269,392.1,269.3z"/>
		<path class="st6" d="M394.5,303c2.6-9.1,9.4-13.6,20.5-13.6c12.8,0,19.2,5.5,19.2,16.4v19.6c0,4.8,0.3,9.7,0.8,14.6h-10.4
			c-0.3-1.8-0.6-4-0.8-6.5c-3.5,5.1-8.7,7.7-15.6,7.7c-4.9,0-8.7-1.5-11.5-4.5c-2.5-2.6-3.7-6-3.7-10.2c0-8.8,5.4-14.2,16.1-16.3
			c4-0.8,8.7-1.2,14.1-1.4v-2.8c0-3.3-0.8-5.6-2.3-7c-1.3-1.2-3.4-1.8-6.2-1.8c-2.6,0-4.7,0.8-6.4,2.5c-1.6,1.5-2.6,3.6-3,6.2
			L394.5,303z M423.2,315.7c-3.8,0.1-7.6,0.6-11.4,1.5c-5.4,1.3-8.1,4.1-8.1,8.4c0,5,2.6,7.5,7.9,7.5c4.8,0,8.7-2.7,11.5-8.1V315.7z
			"/>
		<path class="st6" d="M483.4,305.2l-11,2.5c-1.1-6.7-4-10-8.8-10c-7.4,0-11.1,5.9-11.1,17.6c0,11.8,3.7,17.7,11.1,17.7
			c5.2,0,8.4-3.5,9.5-10.4l10.6,2.9c-1.3,5.5-3.9,9.5-7.8,12.2c-3.4,2.3-7.5,3.5-12.5,3.5c-7.5,0-13.3-2.6-17.2-7.7
			c-3.5-4.5-5.2-10.5-5.2-18c0-8.6,2.3-15.2,6.9-19.9c4-4.1,9.2-6.1,15.6-6.1c5.7,0,10.3,1.6,13.9,4.7
			C480.3,296.8,482.4,300.5,483.4,305.2z"/>
		<path class="st6" d="M502.6,274.4v16.1h11.1v8.3h-11.1v27.1c0,4.8,2,7.1,6.1,7.1c2.2,0,4.1-0.2,5.8-0.6l-0.4,8.1
			c-2.5,0.4-5.4,0.6-8.8,0.6c-5,0-8.6-1.2-10.8-3.6c-2-2.1-2.9-5.3-2.9-9.5v-29.2h-7.4v-8.3h7.4v-13.6L502.6,274.4z"/>
		<path class="st6" d="M560,290.5V340h-11v-8.5c-1.9,3.2-4.4,5.7-7.4,7.5c-2.7,1.6-5.6,2.3-8.6,2.3c-4.5,0-8-1.4-10.6-4.1
			c-2.4-2.6-3.7-6.1-3.7-10.5v-36.1h11.6v32.9c0,5.4,2.3,8.1,7,8.1c2.2,0,4.5-0.9,6.8-2.7c1.9-1.6,3.5-3.5,4.7-5.8v-32.5H560z"/>
		<path class="st6" d="M596,289.4l-0.7,10.6c-6.3,0-11,4.2-14,12.5V340h-11.2v-49.5h10.6v12.1C583.9,293.8,589,289.4,596,289.4z"/>
		<path class="st6" d="M612.6,270v11.6h-12.3V270H612.6z M612.1,290.5V340h-11.4v-49.5H612.1z"/>
		<path class="st6" d="M633.2,290.5v8.7c2.2-3.2,4.8-5.7,7.7-7.4c2.7-1.6,5.6-2.3,8.5-2.3c4.5,0,8,1.5,10.6,4.4
			c2.3,2.6,3.5,6.1,3.5,10.5V340h-11.6v-32.5c0-5.5-2.3-8.3-6.9-8.3c-2.1,0-4.3,0.9-6.5,2.6c-1.9,1.5-3.6,3.4-5,5.9V340h-11.4v-49.5
			H633.2z"/>
		<path class="st6" d="M716,283.6l-0.7,9.1c-2.5,0-4.4,0.2-5.8,0.7c-1,0.4-2.1,1-3.1,1.9c2.7,2.8,4,6.1,4,9.9
			c0,5.4-2.1,9.6-6.2,12.5c-3.5,2.5-7.9,3.8-13.3,3.8c-2.3,0-4.4-0.3-6.4-0.8c-2.4,1.2-3.6,2.6-3.6,4.3c0,1.2,0.5,2,1.5,2.5
			c1,0.5,2.8,0.9,5.4,1.1l11.2,0.9c6.6,0.6,11.3,2.2,13.9,4.6c2.1,2,3.2,4.7,3.2,8.2c0,4.8-2.4,8.5-7.3,11.3
			c-4.4,2.5-10.3,3.7-17.6,3.7c-7.5,0-13.3-1.2-17.2-3.7c-3.3-2.1-5-4.9-5-8.3c0-4.2,3-7.4,9.1-9.6c-4.6-1-7-3.4-7-7.1
			c0-3.7,2.5-7.1,7.6-10.3c-4.7-3-7-7.3-7-13.1c0-5.1,2.1-9.1,6.2-12.1c3.5-2.6,7.9-3.8,13.2-3.8c4.1,0,7.6,0.8,10.5,2.4
			c1.7-3.1,3.8-5.3,6.2-6.5C709.9,284.2,712.6,283.6,716,283.6z M685,337.1c-4.4,1.4-6.6,3.7-6.6,6.7c0,2.3,1.4,4,4.2,5.3
			c2.4,1.1,5.5,1.6,9.4,1.6c4.9,0,8.7-0.7,11.3-2.2c2.1-1.2,3.1-2.6,3.1-4.4c0-1.9-0.7-3.2-2-4c-1.3-0.8-3.7-1.4-7.1-1.7L685,337.1z
			 M691.1,296.1c-2.8,0-5,0.9-6.7,2.7c-1.5,1.6-2.2,3.7-2.2,6.3c0,3.3,1,5.8,2.9,7.6c1.6,1.4,3.6,2.2,6.1,2.2c2.9,0,5.1-0.9,6.8-2.8
			c1.5-1.7,2.2-4,2.2-6.9c0-3-1-5.3-2.9-7C695.5,296.8,693.5,296.1,691.1,296.1z"/>
	</g>
	<text transform="matrix(1 0 0 1 -702.671 224.2736)"><tspan x="0" y="0" class="st6" style="font-family:'YuGothic-Bold'; font-size:90.1064px;">SAP Digital</tspan><tspan x="0" y="108.1" class="st6" style="font-family:'YuGothic-Bold'; font-size:90.1064px;">Manufacturing</tspan></text>
	<g>
		<linearGradient id="SVGID_1_" gradientUnits="userSpaceOnUse" x1="950.2612" y1="480.5377" x2="950.2612" y2="411.662">
			<stop  offset="0" style="stop-color:#225FBC"/>
			<stop  offset="1" style="stop-color:#1FB2F0"/>
		</linearGradient>
		<polyline class="st7" points="880.6,480.4 951,480.4 1019.9,411.6 880.6,411.6 880.6,480.4 		"/>
		<path class="st8" d="M963.3,424.5l-13.7,0v32.6l-12-32.6h-11.9l-10.2,27.2c-1.1-6.9-8.2-9.2-13.8-11c-3.7-1.2-7.6-2.9-7.6-4.9
			c0-1.6,2.1-3.1,6.2-2.8c2.8,0.1,5.2,0.4,10,2.7l4.8-8.3c-4.4-2.2-10.5-3.7-15.5-3.7h0c-5.8,0-10.7,1.9-13.7,5
			c-2.1,2.2-3.2,4.9-3.3,8c-0.1,4.2,1.5,7.2,4.7,9.6c2.7,2,6.2,3.3,9.3,4.3c3.8,1.2,6.9,2.2,6.9,4.4c0,0.8-0.3,1.5-0.9,2.1
			c-1,1-2.4,1.4-4.4,1.4c-3.9,0.1-6.8-0.5-11.3-3.2l-4.2,8.4c4.6,2.6,10,4.1,15.5,4.1l0.7,0c4.8-0.1,8.7-1.5,11.8-4
			c0.2-0.1,0.3-0.3,0.5-0.4l-1.4,3.7h12.4l2.1-6.4c2.2,0.7,4.7,1.2,7.3,1.2c2.6,0,5-0.4,7.1-1.1l2,6.3h20.3v-13.2h4.4
			c10.7,0,17-5.4,17-14.6C982.5,429.2,976.4,424.5,963.3,424.5z M931.6,452.4c-1.6,0-3.1-0.3-4.4-0.8l4.3-13.7h0.1l4.3,13.7
			C934.6,452.1,933.2,452.4,931.6,452.4z M964.1,444.5h-3v-11h3c4,0,7.2,1.3,7.2,5.5C971.3,443.2,968.1,444.5,964.1,444.5"/>
		<path class="st9" d="M967.8,476c0-2.1,1.6-3.7,3.6-3.7c2,0,3.6,1.6,3.6,3.7c0,2.2-1.6,3.7-3.6,3.7
			C969.4,479.7,967.8,478.1,967.8,476z M971.5,480.5c2.4,0,4.5-1.9,4.5-4.5c0-2.6-2.1-4.5-4.5-4.5c-2.5,0-4.5,1.9-4.5,4.5
			C967,478.6,969,480.5,971.5,480.5z M970.5,476.3h0.9l1.4,2.2h0.9l-1.5-2.3c0.8-0.1,1.3-0.5,1.3-1.4c0-1-0.6-1.5-1.8-1.5h-2v5.1
			h0.8V476.3z M970.5,475.7v-1.6h1.1c0.5,0,1.1,0.1,1.1,0.8c0,0.8-0.6,0.8-1.2,0.8H970.5z"/>
	</g>
</g>
</svg>
