<?xml version="1.0" encoding="utf-8"?>
<!-- Generator: Adobe Illustrator 28.0.0, SVG Export Plug-In . SVG Version: 6.00 Build 0)  -->
<svg version="1.1" xmlns="http://www.w3.org/2000/svg" xmlns:xlink="http://www.w3.org/1999/xlink" x="0px" y="0px"
	 viewBox="0 0 1080 582.7" style="enable-background:new 0 0 1080 582.7;" xml:space="preserve">
<style type="text/css">
	.st0{display:none;}
	.st1{fill:#F0F9FF;}
	.st2{display:inline;fill:#E6F4FF;}
	.st3{fill:none;stroke:#FFFFFF;stroke-width:20;stroke-linecap:round;stroke-miterlimit:10;}
	.st4{fill:none;stroke:#FFFFFF;stroke-width:20;stroke-linecap:round;stroke-linejoin:round;stroke-miterlimit:10;}
	.st5{fill:#FFFFFF;}
	.st6{fill:#938D81;}
	.st7{fill:#FF9F33;}
	.st8{fill:#828282;}
</style>
<g id="Layer_2" class="st0">
	
		<image style="display:inline;overflow:visible;" width="233" height="61" xlink:href="C:\Users\HP Vectus\Downloads\WhatsApp Image 2024-03-22 at 09.34.44_acc20392.jpg"  transform="matrix(3.1245 0 0 3.1245 163 154.5937)">
	</image>
</g>
<g id="Layer_3">
	<g>
		<rect class="st1" width="540" height="582.7"/>
		<rect x="540" class="st1" width="540" height="582.7"/>
	</g>
</g>
<g id="Layer_1">
	<g id="Layer_2_00000124153440972177658410000002064653429970608550_" class="st0">
		<rect y="32.3" class="st2" width="1080" height="518"/>
	</g>
	<path class="st3" d="M391.4-153H229.6c-9.4,0-16.9,7.4-16.9,16.6v1c0,9.1,7.6,16.6,16.9,16.6h152.2c9.4,0,16.9,7.4,16.9,16.6v0
		c0,9.1-7.6,16.6-16.9,16.6h-162"/>
	<path class="st4" d="M607-118.9H449.1v-35.7H607c9.9,0,17.9,8,17.9,17.9v0C624.8-126.9,616.8-118.9,607-118.9z"/>
	<path class="st4" d="M607-83.1H449.1v-35.7H607c9.9,0,17.9,8,17.9,17.9v0C624.8-91.1,616.8-83.1,607-83.1z"/>
	<path class="st4" d="M674.1-80.1l75.5-75.5c5.1-5.1,13.4-5.1,18.6,0l75.3,75.3"/>
	<circle class="st5" cx="758.8" cy="-94.9" r="15.9"/>
	<g>
		<g>
			<path class="st6" d="M1009.7-140.2h5.1v-4.2h-5.1c-5.8,0-10.6,4.7-10.6,10.6v2.1h16.7c-0.8,2.5-3.2,4.4-6,4.4h-5.4v4.2h5.4
				c5.8,0,10.6-4.7,10.6-10.6v-2.2h-16.6C1004.6-138.4,1007-140.2,1009.7-140.2z"/>
			<path class="st6" d="M1061.2-123.2h10.3v-4.2h-10.3c-3.5,0-6.4-2.9-6.4-6.4c0-3.5,2.9-6.4,6.4-6.4c2.8,0,5.2,1.8,6.1,4.3h-6.1
				v4.2h10.6v-2.1c0-5.9-4.8-10.6-10.6-10.6c-5.9,0-10.6,4.8-10.6,10.6C1050.6-127.9,1055.3-123.2,1061.2-123.2z"/>
			<path class="st6" d="M1106.5-123.2h10.1v-2.1v-8.8v-20.1h-4.2v11.9c-1.7-1.2-3.7-1.9-5.9-1.9c-5.6,0-10.1,4.5-10.1,10.1v0.9
				C1096.4-127.7,1101-123.2,1106.5-123.2z M1100.6-134.1c0-3.2,2.6-5.9,5.9-5.9c3.2,0,5.9,2.6,5.9,5.9v6.7h-5.9
				c-3.2,0-5.9-2.6-5.9-5.9V-134.1z"/>
			<path class="st6" d="M1035.6-98.8h-9.3V-125c1.7,1.2,3.7,1.9,5.9,1.9c5.6,0,10.1-4.5,10.1-10.1v-0.9c0-5.6-4.5-10.1-10.1-10.1
				h-10.1v2.1h0v47.4h13.5c5.8,0,10.4-4.7,10.4-10.4h-4.2C1041.9-101.6,1039.1-98.8,1035.6-98.8z M1026.3-139.9h5.9
				c3.2,0,5.9,2.6,5.9,5.9v0.9c0,3.2-2.6,5.9-5.9,5.9c-3.2,0-5.9-2.6-5.9-5.9V-139.9z"/>
			<path class="st6" d="M1134.8-123.2h10.1v-2.1v-8.8v-20.1h-4.2v11.9c-1.7-1.2-3.7-1.9-5.9-1.9c-5.6,0-10.1,4.5-10.1,10.1v0.9
				C1124.7-127.7,1129.3-123.2,1134.8-123.2z M1128.9-134.1c0-3.2,2.6-5.9,5.9-5.9s5.9,2.6,5.9,5.9v6.7h-5.9c-3.2,0-5.9-2.6-5.9-5.9
				V-134.1z"/>
			<rect x="1141.9" y="-107.6" class="st6" width="4.2" height="13.1"/>
			<rect x="1118.9" y="-144.3" class="st6" width="4.2" height="21"/>
			<rect x="1044.8" y="-154.2" class="st6" width="4.2" height="31"/>
			<rect x="1048" y="-103.4" class="st6" width="4.2" height="8.9"/>
			<rect x="1084.2" y="-103.4" class="st6" width="4.2" height="8.9"/>
			<polygon class="st6" points="1094.3,-102.7 1100.9,-102.7 1100.9,-103.4 1094.3,-103.4 1094.3,-107.6 1090.1,-107.6 
				1090.1,-98.6 1094.3,-98.6 			"/>
			<rect x="1118.9" y="-154.2" class="st6" width="4.2" height="4.5"/>
			<path class="st6" d="M1094.1-123.2v-10.9c0-5.5-4.5-9.9-9.9-9.9h-10.8v20.8h4.2v-16.6h6.6c3.2,0,5.7,2.6,5.7,5.7v10.9H1094.1z"/>
			<path class="st6" d="M1112-98.6v0.7h6.1h4.8c0.2-0.4,0.3-0.7,0.3-1.1c0-2.4-4.9-4.4-10.8-4.4c-6,0-10.8,2-10.8,4.4
				s4.9,4.4,10.8,4.4c0.5,0,0.9,0,1.4,0h9.3v-0.6h-5.3h-5.8c-3.5,0-6.4-1.7-6.4-3.8s2.8-3.8,6.4-3.8c3.5,0,6.4,1.7,6.4,3.8
				c0,0.1,0,0.3,0,0.4H1112z"/>
			<path class="st6" d="M1073.1-103.4L1073.1-103.4h-2.8v0h-4.2v0h-7.6v0h-4.2v8.9h4.2v-8.1h7.6v8.1h4.2v-8.1h1.9h1v0c0,0,0,0,0,0
				c1.9,0.1,3.6,1,4.7,2.4h0v5.7h4.2v-5.7C1079.7-102.2,1076.6-103.4,1073.1-103.4L1073.1-103.4z"/>
			<path class="st6" d="M1094.9-97.4c-0.3-0.4-0.5-0.9-0.6-1.2c-1.4,0-2.8,0-4.2,0c0.1,0.5,0.3,0.8,0.4,1c1.6,2.8,6.5,2.9,9.3,2.9
				c0.5,0,0.9,0,1.1,0v-0.6c-1,0-2.6-0.2-4.2-0.8C1095.7-96.6,1095.2-97,1094.9-97.4z"/>
			<path class="st6" d="M1124.6-99.1c0,2.4,4.9,4.4,10.9,4.4h6.4v-0.6h-6.5c-3.6,0-6.5-1.7-6.5-3.8c0-2.1,2.9-3.8,6.5-3.8
				c3.6,0,6.5,1.7,6.5,3.8v-3.6c-1.8-0.5-4-0.8-6.4-0.8C1129.5-103.5,1124.6-101.5,1124.6-99.1z"/>
		</g>
		<g>
			<polygon class="st7" points="1034.8,-109 1034.8,-120.5 1039.4,-120.5 1039.4,-121.9 1029,-121.9 1029,-120.5 1033.4,-120.5 
				1033.4,-109 			"/>
			<path class="st7" d="M1038.3-114.6v1.1c0,2.7,2.2,4.8,4.8,4.8h10.5v-1.4h-10.5c-1.8,0-3.3-1.4-3.4-3.3h13.4v-1.4h-13.4
				c0.1-1.8,1.6-3.3,3.4-3.3h10.5v-1.4h-10.5C1040.5-119.4,1038.3-117.2,1038.3-114.6z"/>
			<path class="st7" d="M1060.9-118h10.5v-1.4h-10.5c-2.7,0-4.8,2.2-4.8,4.8v1.1c0,2.7,2.2,4.8,4.8,4.8h10.5v-1.4h-10.5
				c-1.9,0-3.4-1.5-3.4-3.4v-1.1C1057.5-116.4,1059.1-118,1060.9-118z"/>
			<path class="st7" d="M1135.8-118h10.5v-1.4h-10.5c-2.7,0-4.8,2.2-4.8,4.8v1.1c0,2.7,2.2,4.8,4.8,4.8h10.5v-1.4h-10.5
				c-1.8,0-3.3-1.4-3.4-3.3h13.4v-1.4h-13.4C1132.4-116.5,1133.9-118,1135.8-118z"/>
			<path class="st7" d="M1090.9-114.4v0.8c0,2.5,2.1,4.6,4.6,4.6h9.7c2.5,0,4.6-2.1,4.6-4.6v-0.8c0-2.5-2.1-4.6-4.6-4.6h-9.7
				C1092.9-119,1090.9-116.9,1090.9-114.4z M1092.3-114.4c0-1.8,1.4-3.2,3.2-3.2h9.7c1.8,0,3.2,1.4,3.2,3.2v0.8
				c0,1.8-1.4,3.2-3.2,3.2h-9.7c-1.8,0-3.2-1.4-3.2-3.2V-114.4z"/>
			<polygon class="st7" points="1074.7,-113.4 1086.8,-113.4 1086.8,-108.8 1088.2,-108.8 1088.2,-119.4 1086.8,-119.4 
				1086.8,-114.8 1074.7,-114.8 1074.7,-119.4 1073.3,-119.4 1073.3,-108.8 1074.7,-108.8 			"/>
			<path class="st7" d="M1126.7-108.6c0.8-0.4,1.3-1.1,1.3-2v-8.8h-1.4v8.8c0,0.5-0.3,0.6-0.5,0.7c-0.1,0-0.5,0.2-0.8-0.1l-9.5-8.5
				c-0.6-0.6-1.5-0.7-2.3-0.4c-0.8,0.4-1.3,1.1-1.3,2v8.1h1.4v-8.1c0-0.5,0.3-0.6,0.5-0.7c0.1,0,0.5-0.2,0.8,0.1l9.5,8.5
				c0.4,0.4,0.9,0.6,1.4,0.6C1126.1-108.4,1126.4-108.5,1126.7-108.6z"/>
		</g>
		<g>
			<path class="st7" d="M1000.7-84.7l0.8-4.2h1.6c0.4,0,0.8,0.1,1.1,0.2c0.3,0.1,0.5,0.3,0.7,0.6c0.2,0.3,0.2,0.6,0.2,0.9
				c0,0.4-0.1,0.7-0.2,1c-0.1,0.3-0.3,0.6-0.5,0.8c-0.2,0.2-0.5,0.4-0.8,0.5c-0.3,0.1-0.7,0.2-1.1,0.2H1000.7z M1001.4-85.2h1.2
				c0.4,0,0.8-0.1,1.1-0.2c0.3-0.2,0.5-0.4,0.7-0.7c0.2-0.3,0.2-0.6,0.2-1c0-0.3-0.1-0.5-0.2-0.7c-0.1-0.2-0.3-0.3-0.5-0.4
				c-0.2-0.1-0.5-0.1-0.8-0.1h-1.1L1001.4-85.2z"/>
			<path class="st7" d="M1007.2-84.6c-0.3,0-0.6-0.1-0.8-0.2c-0.2-0.1-0.4-0.3-0.5-0.5c-0.1-0.2-0.2-0.4-0.2-0.7
				c0-0.4,0.1-0.7,0.2-1c0.2-0.3,0.4-0.5,0.6-0.7c0.3-0.2,0.6-0.2,0.9-0.2c0.3,0,0.5,0.1,0.7,0.2c0.2,0.1,0.4,0.3,0.5,0.5
				c0.1,0.2,0.2,0.4,0.2,0.7c0,0.1,0,0.1,0,0.2c0,0.1,0,0.1,0,0.2h-2.7l0.1-0.4h2.4l-0.2,0.1c0-0.2,0-0.4,0-0.6
				c-0.1-0.2-0.2-0.3-0.3-0.4c-0.1-0.1-0.3-0.1-0.5-0.1c-0.2,0-0.4,0.1-0.6,0.2c-0.2,0.1-0.3,0.3-0.4,0.5c-0.1,0.2-0.1,0.4-0.1,0.7
				c0,0.3,0.1,0.5,0.2,0.7c0.2,0.2,0.4,0.2,0.8,0.2c0.2,0,0.4,0,0.6-0.1c0.2-0.1,0.3-0.2,0.4-0.3l0.2,0.4c-0.2,0.1-0.3,0.3-0.6,0.3
				C1007.7-84.7,1007.4-84.6,1007.2-84.6z"/>
			<path class="st7" d="M1009.5-84.7l0.9-4.4h0.6l-0.9,4.4H1009.5z"/>
			<path class="st7" d="M1011.3-84.7l0.6-3.2h0.6l-0.6,3.2H1011.3z M1012.4-88.4c-0.1,0-0.2,0-0.3-0.1c-0.1-0.1-0.1-0.1-0.1-0.2
				c0-0.1,0-0.2,0.1-0.3c0.1-0.1,0.2-0.1,0.3-0.1c0.1,0,0.2,0,0.3,0.1c0.1,0.1,0.1,0.1,0.1,0.2c0,0.1,0,0.2-0.1,0.3
				C1012.6-88.5,1012.5-88.4,1012.4-88.4z"/>
			<path class="st7" d="M1013.9-84.7l-0.8-3.2h0.6l0.7,2.9h-0.3l1.8-2.9h0.6l-2,3.2H1013.9z"/>
			<path class="st7" d="M1018-84.6c-0.3,0-0.6-0.1-0.8-0.2c-0.2-0.1-0.4-0.3-0.5-0.5c-0.1-0.2-0.2-0.4-0.2-0.7c0-0.4,0.1-0.7,0.2-1
				c0.2-0.3,0.4-0.5,0.6-0.7c0.3-0.2,0.6-0.2,0.9-0.2c0.3,0,0.5,0.1,0.7,0.2c0.2,0.1,0.4,0.3,0.5,0.5c0.1,0.2,0.2,0.4,0.2,0.7
				c0,0.1,0,0.1,0,0.2c0,0.1,0,0.1,0,0.2h-2.7l0.1-0.4h2.4l-0.2,0.1c0-0.2,0-0.4,0-0.6c-0.1-0.2-0.2-0.3-0.3-0.4
				c-0.1-0.1-0.3-0.1-0.5-0.1c-0.2,0-0.4,0.1-0.6,0.2c-0.2,0.1-0.3,0.3-0.4,0.5c-0.1,0.2-0.1,0.4-0.1,0.7c0,0.3,0.1,0.5,0.2,0.7
				c0.2,0.2,0.4,0.2,0.8,0.2c0.2,0,0.4,0,0.6-0.1c0.2-0.1,0.3-0.2,0.4-0.3l0.2,0.4c-0.2,0.1-0.3,0.3-0.6,0.3
				C1018.5-84.7,1018.3-84.6,1018-84.6z"/>
			<path class="st7" d="M1020.3-84.7l0.6-3.2h0.5l-0.2,0.9l-0.1-0.2c0.1-0.3,0.3-0.5,0.6-0.6c0.2-0.1,0.5-0.2,0.8-0.2l-0.1,0.6
				c0,0,0,0-0.1,0c0,0,0,0-0.1,0c-0.3,0-0.6,0.1-0.8,0.3c-0.2,0.2-0.3,0.4-0.4,0.8l-0.3,1.6H1020.3z"/>
			<path class="st7" d="M1022.9-84.7l0.6-3.2h0.6l-0.6,3.2H1022.9z M1023.9-88.4c-0.1,0-0.2,0-0.3-0.1c-0.1-0.1-0.1-0.1-0.1-0.2
				c0-0.1,0-0.2,0.1-0.3c0.1-0.1,0.2-0.1,0.3-0.1c0.1,0,0.2,0,0.3,0.1c0.1,0.1,0.1,0.1,0.1,0.2c0,0.1,0,0.2-0.1,0.3
				C1024.2-88.5,1024.1-88.4,1023.9-88.4z"/>
			<path class="st7" d="M1026.9-87.9c0.3,0,0.5,0.1,0.7,0.2c0.2,0.1,0.3,0.3,0.4,0.5c0.1,0.2,0.1,0.5,0,0.8l-0.4,1.8h-0.6l0.4-1.8
				c0.1-0.3,0-0.5-0.1-0.7c-0.1-0.2-0.3-0.2-0.6-0.2c-0.3,0-0.6,0.1-0.8,0.2c-0.2,0.2-0.3,0.4-0.4,0.8l-0.3,1.7h-0.6l0.6-3.2h0.5
				l-0.2,0.9l-0.1-0.2c0.2-0.2,0.3-0.4,0.6-0.5C1026.4-87.8,1026.6-87.9,1026.9-87.9z"/>
			<path class="st7" d="M1030.1-83.5c-0.3,0-0.6,0-0.8-0.1c-0.2-0.1-0.5-0.2-0.6-0.3l0.3-0.4c0.1,0.1,0.3,0.2,0.5,0.3
				c0.2,0.1,0.4,0.1,0.7,0.1c0.4,0,0.7-0.1,0.9-0.3c0.2-0.2,0.3-0.4,0.4-0.8l0.1-0.7l0.2-0.6l0.1-0.6l0.2-0.9h0.5l-0.5,2.7
				c-0.1,0.6-0.3,1-0.6,1.2C1031-83.6,1030.6-83.5,1030.1-83.5z M1030.3-84.8c-0.3,0-0.5-0.1-0.7-0.2c-0.2-0.1-0.4-0.3-0.5-0.4
				c-0.1-0.2-0.2-0.4-0.2-0.7c0-0.3,0-0.5,0.1-0.7c0.1-0.2,0.2-0.4,0.4-0.6s0.3-0.3,0.6-0.4c0.2-0.1,0.5-0.1,0.7-0.1
				c0.2,0,0.5,0,0.7,0.1c0.2,0.1,0.4,0.2,0.5,0.4c0.1,0.2,0.2,0.4,0.2,0.7c0,0.4-0.1,0.7-0.2,1c-0.1,0.3-0.3,0.5-0.6,0.7
				S1030.7-84.8,1030.3-84.8z M1030.4-85.3c0.2,0,0.5-0.1,0.6-0.2c0.2-0.1,0.3-0.3,0.4-0.4c0.1-0.2,0.2-0.4,0.2-0.6
				c0-0.3-0.1-0.5-0.2-0.6c-0.2-0.1-0.4-0.2-0.7-0.2c-0.2,0-0.5,0.1-0.6,0.2c-0.2,0.1-0.3,0.3-0.4,0.4c-0.1,0.2-0.2,0.4-0.2,0.6
				c0,0.3,0.1,0.5,0.3,0.6C1029.9-85.4,1030.1-85.3,1030.4-85.3z"/>
			<path class="st7" d="M1035-87.4l0.1-0.5h2l-0.1,0.5H1035z M1036-84.6c-0.2,0-0.4,0-0.5-0.1c-0.1-0.1-0.2-0.2-0.3-0.4
				c-0.1-0.2-0.1-0.3,0-0.5l0.6-2.9h0.6l-0.6,2.8c0,0.2,0,0.3,0.1,0.4c0.1,0.1,0.2,0.2,0.3,0.2c0.1,0,0.2,0,0.2,0s0.2-0.1,0.2-0.1
				l0.1,0.4c-0.1,0.1-0.2,0.1-0.4,0.2C1036.2-84.7,1036.1-84.6,1036-84.6z"/>
			<path class="st7" d="M1039.8-87.9c0.3,0,0.5,0.1,0.7,0.2c0.2,0.1,0.3,0.3,0.4,0.5c0.1,0.2,0.1,0.5,0,0.8l-0.4,1.8h-0.6l0.4-1.8
				c0.1-0.3,0-0.5-0.1-0.7c-0.1-0.2-0.3-0.2-0.6-0.2c-0.3,0-0.6,0.1-0.8,0.2c-0.2,0.2-0.3,0.4-0.4,0.8l-0.3,1.7h-0.6l0.9-4.4h0.6
				l-0.4,2.2l-0.1-0.2c0.2-0.2,0.3-0.4,0.6-0.5C1039.2-87.8,1039.5-87.9,1039.8-87.9z"/>
			<path class="st7" d="M1043.3-84.6c-0.3,0-0.6-0.1-0.8-0.2c-0.2-0.1-0.4-0.3-0.5-0.5c-0.1-0.2-0.2-0.4-0.2-0.7
				c0-0.4,0.1-0.7,0.2-1c0.2-0.3,0.4-0.5,0.6-0.7c0.3-0.2,0.6-0.2,0.9-0.2c0.3,0,0.5,0.1,0.7,0.2c0.2,0.1,0.4,0.3,0.5,0.5
				c0.1,0.2,0.2,0.4,0.2,0.7c0,0.1,0,0.1,0,0.2c0,0.1,0,0.1,0,0.2h-2.7l0.1-0.4h2.4l-0.2,0.1c0-0.2,0-0.4,0-0.6
				c-0.1-0.2-0.2-0.3-0.3-0.4c-0.1-0.1-0.3-0.1-0.5-0.1c-0.2,0-0.4,0.1-0.6,0.2c-0.2,0.1-0.3,0.3-0.4,0.5c-0.1,0.2-0.1,0.4-0.1,0.7
				c0,0.3,0.1,0.5,0.2,0.7c0.2,0.2,0.4,0.2,0.8,0.2c0.2,0,0.4,0,0.6-0.1c0.2-0.1,0.3-0.2,0.4-0.3l0.2,0.4c-0.2,0.1-0.3,0.3-0.6,0.3
				C1043.7-84.7,1043.5-84.6,1043.3-84.6z"/>
			<path class="st7" d="M1048.7-84.6c-0.2,0-0.4,0-0.6-0.1c-0.2,0-0.4-0.1-0.5-0.2c-0.2-0.1-0.3-0.2-0.4-0.3l0.3-0.5
				c0.1,0.1,0.2,0.2,0.4,0.3c0.1,0.1,0.3,0.1,0.5,0.2s0.3,0.1,0.5,0.1c0.2,0,0.4,0,0.6-0.1c0.2-0.1,0.3-0.1,0.4-0.2
				c0.1-0.1,0.1-0.2,0.1-0.4c0-0.1,0-0.2-0.1-0.3c-0.1-0.1-0.2-0.1-0.3-0.2c-0.1,0-0.3-0.1-0.4-0.1c-0.2,0-0.3-0.1-0.5-0.1
				c-0.2-0.1-0.3-0.1-0.4-0.2c-0.1-0.1-0.2-0.2-0.3-0.3c-0.1-0.1-0.1-0.3-0.1-0.5c0-0.3,0.1-0.5,0.2-0.7c0.1-0.2,0.4-0.3,0.6-0.4
				c0.3-0.1,0.6-0.2,0.9-0.2c0.3,0,0.5,0,0.7,0.1c0.2,0.1,0.4,0.1,0.6,0.3l-0.2,0.5c-0.2-0.1-0.3-0.2-0.5-0.3
				c-0.2-0.1-0.4-0.1-0.6-0.1c-0.2,0-0.4,0-0.6,0.1c-0.2,0.1-0.3,0.1-0.4,0.3c-0.1,0.1-0.1,0.2-0.1,0.4c0,0.1,0,0.2,0.1,0.3
				c0.1,0.1,0.2,0.1,0.3,0.2c0.1,0.1,0.3,0.1,0.4,0.1c0.2,0,0.3,0.1,0.5,0.1c0.2,0,0.3,0.1,0.4,0.2c0.1,0.1,0.2,0.2,0.3,0.3
				s0.1,0.3,0.1,0.5c0,0.3-0.1,0.5-0.2,0.7c-0.1,0.2-0.4,0.3-0.6,0.5C1049.3-84.7,1049-84.6,1048.7-84.6z"/>
			<path class="st7" d="M1052.6-84.6c-0.3,0-0.6-0.1-0.8-0.2c-0.2-0.1-0.4-0.3-0.5-0.5c-0.1-0.2-0.2-0.4-0.2-0.7
				c0-0.4,0.1-0.7,0.2-1c0.2-0.3,0.4-0.5,0.7-0.7c0.3-0.2,0.6-0.2,1-0.2c0.3,0,0.6,0.1,0.8,0.2c0.2,0.1,0.4,0.3,0.5,0.5
				c0.1,0.2,0.2,0.4,0.2,0.7c0,0.4-0.1,0.7-0.2,1c-0.2,0.3-0.4,0.5-0.7,0.7C1053.3-84.7,1053-84.6,1052.6-84.6z M1052.7-85.1
				c0.2,0,0.5-0.1,0.6-0.2c0.2-0.1,0.3-0.3,0.4-0.5c0.1-0.2,0.2-0.4,0.2-0.7c0-0.3-0.1-0.5-0.2-0.7c-0.2-0.2-0.4-0.2-0.7-0.2
				c-0.2,0-0.4,0.1-0.6,0.2c-0.2,0.1-0.3,0.3-0.4,0.5c-0.1,0.2-0.2,0.4-0.2,0.7c0,0.3,0.1,0.5,0.2,0.7
				C1052.1-85.2,1052.4-85.1,1052.7-85.1z"/>
			<path class="st7" d="M1055.1-84.7l0.9-4.4h0.6l-0.9,4.4H1055.1z"/>
			<path class="st7" d="M1058.2-84.6c-0.3,0-0.5-0.1-0.7-0.2c-0.2-0.1-0.3-0.3-0.4-0.5c-0.1-0.2-0.1-0.5,0-0.8l0.4-1.8h0.6l-0.4,1.8
				c-0.1,0.3,0,0.5,0.1,0.7c0.1,0.2,0.3,0.2,0.6,0.2c0.3,0,0.5-0.1,0.8-0.3c0.2-0.2,0.3-0.4,0.4-0.8l0.3-1.7h0.6l-0.6,3.2h-0.5
				l0.2-0.9l0.1,0.2c-0.1,0.2-0.3,0.4-0.6,0.5C1058.8-84.7,1058.5-84.6,1058.2-84.6z"/>
			<path class="st7" d="M1061.2-87.4l0.1-0.5h2l-0.1,0.5H1061.2z M1062.2-84.6c-0.2,0-0.4,0-0.5-0.1c-0.1-0.1-0.2-0.2-0.3-0.4
				c-0.1-0.2-0.1-0.3,0-0.5l0.6-2.9h0.6l-0.6,2.8c0,0.2,0,0.3,0.1,0.4c0.1,0.1,0.2,0.2,0.3,0.2c0.1,0,0.2,0,0.2,0s0.2-0.1,0.2-0.1
				l0.1,0.4c-0.1,0.1-0.2,0.1-0.4,0.2C1062.4-84.7,1062.3-84.6,1062.2-84.6z"/>
			<path class="st7" d="M1063.7-84.7l0.6-3.2h0.6l-0.6,3.2H1063.7z M1064.8-88.4c-0.1,0-0.2,0-0.3-0.1c-0.1-0.1-0.1-0.1-0.1-0.2
				c0-0.1,0-0.2,0.1-0.3c0.1-0.1,0.2-0.1,0.3-0.1c0.1,0,0.2,0,0.3,0.1c0.1,0.1,0.1,0.1,0.1,0.2c0,0.1,0,0.2-0.1,0.3
				C1065-88.5,1064.9-88.4,1064.8-88.4z"/>
			<path class="st7" d="M1067-84.6c-0.3,0-0.6-0.1-0.8-0.2c-0.2-0.1-0.4-0.3-0.5-0.5c-0.1-0.2-0.2-0.4-0.2-0.7c0-0.4,0.1-0.7,0.2-1
				c0.2-0.3,0.4-0.5,0.7-0.7c0.3-0.2,0.6-0.2,1-0.2c0.3,0,0.6,0.1,0.8,0.2c0.2,0.1,0.4,0.3,0.5,0.5c0.1,0.2,0.2,0.4,0.2,0.7
				c0,0.4-0.1,0.7-0.2,1c-0.2,0.3-0.4,0.5-0.7,0.7C1067.7-84.7,1067.4-84.6,1067-84.6z M1067-85.1c0.2,0,0.5-0.1,0.6-0.2
				c0.2-0.1,0.3-0.3,0.4-0.5c0.1-0.2,0.2-0.4,0.2-0.7c0-0.3-0.1-0.5-0.2-0.7c-0.2-0.2-0.4-0.2-0.7-0.2c-0.2,0-0.4,0.1-0.6,0.2
				c-0.2,0.1-0.3,0.3-0.4,0.5c-0.1,0.2-0.2,0.4-0.2,0.7c0,0.3,0.1,0.5,0.2,0.7C1066.5-85.2,1066.7-85.1,1067-85.1z"/>
			<path class="st7" d="M1071.7-87.9c0.3,0,0.5,0.1,0.7,0.2c0.2,0.1,0.3,0.3,0.4,0.5c0.1,0.2,0.1,0.5,0,0.8l-0.4,1.8h-0.6l0.4-1.8
				c0.1-0.3,0-0.5-0.1-0.7c-0.1-0.2-0.3-0.2-0.6-0.2c-0.3,0-0.6,0.1-0.8,0.2c-0.2,0.2-0.3,0.4-0.4,0.8l-0.3,1.7h-0.6l0.6-3.2h0.5
				l-0.2,0.9l-0.1-0.2c0.2-0.2,0.3-0.4,0.6-0.5C1071.2-87.8,1071.4-87.9,1071.7-87.9z"/>
			<path class="st7" d="M1076.8-84.6c-0.3,0-0.5-0.1-0.7-0.2c-0.2-0.1-0.4-0.3-0.5-0.5c-0.1-0.2-0.2-0.4-0.2-0.7
				c0-0.3,0-0.5,0.1-0.7c0.1-0.2,0.2-0.4,0.4-0.6c0.2-0.2,0.4-0.3,0.6-0.4c0.2-0.1,0.5-0.1,0.7-0.1c0.3,0,0.5,0,0.7,0.1
				c0.2,0.1,0.3,0.2,0.4,0.4c0.1,0.2,0.2,0.4,0.2,0.7c0,0.4-0.1,0.7-0.2,1c-0.1,0.3-0.3,0.5-0.6,0.7S1077.2-84.6,1076.8-84.6z
				 M1077-85.1c0.2,0,0.5-0.1,0.6-0.2c0.2-0.1,0.3-0.3,0.4-0.5c0.1-0.2,0.2-0.4,0.2-0.7c0-0.3-0.1-0.5-0.2-0.7
				c-0.2-0.2-0.4-0.2-0.7-0.2c-0.2,0-0.4,0.1-0.6,0.2c-0.2,0.1-0.3,0.3-0.4,0.5c-0.1,0.2-0.2,0.4-0.2,0.7c0,0.3,0.1,0.5,0.2,0.7
				C1076.4-85.2,1076.7-85.1,1077-85.1z M1077.9-84.7l0.2-0.8l0.2-0.7l0.1-0.8l0.2-0.9h0.6l-0.6,3.2H1077.9z"/>
			<path class="st7" d="M1080.7-84.6c-0.3,0-0.5,0-0.8-0.1c-0.2-0.1-0.4-0.2-0.5-0.3l0.3-0.5c0.1,0.1,0.3,0.2,0.5,0.2
				c0.2,0.1,0.4,0.1,0.6,0.1c0.3,0,0.5,0,0.6-0.1c0.1-0.1,0.2-0.2,0.2-0.3c0-0.1,0-0.2-0.1-0.2c-0.1-0.1-0.2-0.1-0.3-0.1
				s-0.3-0.1-0.4-0.1c-0.2,0-0.3-0.1-0.4-0.1c-0.1-0.1-0.2-0.1-0.3-0.2c-0.1-0.1-0.1-0.2-0.1-0.4c0-0.2,0.1-0.4,0.2-0.5
				s0.3-0.3,0.5-0.4c0.2-0.1,0.5-0.1,0.8-0.1c0.2,0,0.4,0,0.6,0.1s0.4,0.1,0.5,0.2l-0.2,0.5c-0.1-0.1-0.3-0.2-0.4-0.2
				c-0.2,0-0.3-0.1-0.5-0.1c-0.3,0-0.5,0-0.6,0.1c-0.1,0.1-0.2,0.2-0.2,0.3c0,0.1,0,0.2,0.1,0.2c0.1,0.1,0.2,0.1,0.3,0.1
				c0.1,0,0.3,0.1,0.4,0.1c0.1,0,0.3,0.1,0.4,0.1c0.1,0.1,0.2,0.1,0.3,0.2c0.1,0.1,0.1,0.2,0.1,0.4c0,0.2-0.1,0.4-0.2,0.6
				c-0.1,0.2-0.3,0.3-0.5,0.3C1081.2-84.7,1080.9-84.6,1080.7-84.6z"/>
			<path class="st7" d="M1084.5-83.5c-0.2,0-0.3,0-0.4-0.1c-0.1,0-0.3-0.1-0.3-0.2l0.3-0.4c0.1,0.1,0.1,0.1,0.2,0.2
				c0.1,0,0.2,0.1,0.3,0.1c0.1,0,0.2,0,0.4-0.1c0.1-0.1,0.2-0.2,0.3-0.4l0.3-0.5l0.1-0.1l1.8-2.9h0.6l-2.2,3.5
				c-0.1,0.2-0.3,0.4-0.4,0.5c-0.1,0.1-0.3,0.2-0.4,0.3C1084.8-83.5,1084.7-83.5,1084.5-83.5z M1085.4-84.6l-0.8-3.3h0.6l0.7,2.8
				L1085.4-84.6z"/>
			<path class="st7" d="M1089.4-84.6c-0.3,0-0.6-0.1-0.8-0.2c-0.2-0.1-0.4-0.3-0.5-0.5c-0.1-0.2-0.2-0.4-0.2-0.7
				c0-0.4,0.1-0.7,0.2-1c0.2-0.3,0.4-0.5,0.7-0.7c0.3-0.2,0.6-0.2,1-0.2c0.3,0,0.6,0.1,0.8,0.2c0.2,0.1,0.4,0.3,0.5,0.5
				c0.1,0.2,0.2,0.4,0.2,0.7c0,0.4-0.1,0.7-0.2,1c-0.2,0.3-0.4,0.5-0.7,0.7C1090.1-84.7,1089.8-84.6,1089.4-84.6z M1089.5-85.1
				c0.2,0,0.5-0.1,0.6-0.2c0.2-0.1,0.3-0.3,0.4-0.5c0.1-0.2,0.2-0.4,0.2-0.7c0-0.3-0.1-0.5-0.2-0.7c-0.2-0.2-0.4-0.2-0.7-0.2
				c-0.2,0-0.4,0.1-0.6,0.2c-0.2,0.1-0.3,0.3-0.4,0.5c-0.1,0.2-0.2,0.4-0.2,0.7c0,0.3,0.1,0.5,0.2,0.7
				C1088.9-85.2,1089.2-85.1,1089.5-85.1z"/>
			<path class="st7" d="M1093.2-84.6c-0.3,0-0.5-0.1-0.7-0.2c-0.2-0.1-0.3-0.3-0.4-0.5c-0.1-0.2-0.1-0.5,0-0.8l0.4-1.8h0.6l-0.4,1.8
				c-0.1,0.3,0,0.5,0.1,0.7c0.1,0.2,0.3,0.2,0.6,0.2c0.3,0,0.5-0.1,0.8-0.3c0.2-0.2,0.3-0.4,0.4-0.8l0.3-1.7h0.6l-0.6,3.2h-0.5
				l0.2-0.9l0.1,0.2c-0.1,0.2-0.3,0.4-0.6,0.5C1093.8-84.7,1093.5-84.6,1093.2-84.6z"/>
			<path class="st7" d="M1100.1-87.9c0.3,0,0.5,0.1,0.7,0.2c0.2,0.1,0.3,0.3,0.4,0.5c0.1,0.2,0.1,0.5,0,0.8l-0.4,1.8h-0.6l0.4-1.8
				c0.1-0.3,0-0.5-0.1-0.7c-0.1-0.2-0.3-0.2-0.6-0.2c-0.3,0-0.6,0.1-0.8,0.2c-0.2,0.2-0.3,0.4-0.4,0.8l-0.3,1.7h-0.6l0.9-4.4h0.6
				l-0.4,2.2l-0.1-0.2c0.2-0.2,0.3-0.4,0.6-0.5C1099.5-87.8,1099.8-87.9,1100.1-87.9z"/>
			<path class="st7" d="M1103.4-84.6c-0.3,0-0.5-0.1-0.7-0.2c-0.2-0.1-0.4-0.3-0.5-0.5c-0.1-0.2-0.2-0.4-0.2-0.7
				c0-0.3,0-0.5,0.1-0.7c0.1-0.2,0.2-0.4,0.4-0.6c0.2-0.2,0.4-0.3,0.6-0.4c0.2-0.1,0.5-0.1,0.7-0.1c0.3,0,0.5,0,0.7,0.1
				c0.2,0.1,0.3,0.2,0.4,0.4c0.1,0.2,0.2,0.4,0.2,0.7c0,0.4-0.1,0.7-0.2,1c-0.1,0.3-0.3,0.5-0.6,0.7
				C1104.1-84.7,1103.8-84.6,1103.4-84.6z M1103.6-85.1c0.2,0,0.5-0.1,0.6-0.2c0.2-0.1,0.3-0.3,0.4-0.5c0.1-0.2,0.2-0.4,0.2-0.7
				c0-0.3-0.1-0.5-0.2-0.7c-0.2-0.2-0.4-0.2-0.7-0.2c-0.2,0-0.4,0.1-0.6,0.2c-0.2,0.1-0.3,0.3-0.4,0.5c-0.1,0.2-0.2,0.4-0.2,0.7
				c0,0.3,0.1,0.5,0.2,0.7C1103-85.2,1103.3-85.1,1103.6-85.1z M1104.5-84.7l0.2-0.8l0.2-0.7l0.1-0.8l0.2-0.9h0.6l-0.6,3.2H1104.5z"
				/>
			<path class="st7" d="M1107.1-84.7l-0.8-3.2h0.6l0.7,2.9h-0.3l1.8-2.9h0.6l-2,3.2H1107.1z"/>
			<path class="st7" d="M1111.2-84.6c-0.3,0-0.6-0.1-0.8-0.2c-0.2-0.1-0.4-0.3-0.5-0.5c-0.1-0.2-0.2-0.4-0.2-0.7
				c0-0.4,0.1-0.7,0.2-1c0.2-0.3,0.4-0.5,0.6-0.7c0.3-0.2,0.6-0.2,0.9-0.2c0.3,0,0.5,0.1,0.7,0.2c0.2,0.1,0.4,0.3,0.5,0.5
				c0.1,0.2,0.2,0.4,0.2,0.7c0,0.1,0,0.1,0,0.2c0,0.1,0,0.1,0,0.2h-2.7l0.1-0.4h2.4l-0.2,0.1c0-0.2,0-0.4,0-0.6
				c-0.1-0.2-0.2-0.3-0.3-0.4c-0.1-0.1-0.3-0.1-0.5-0.1c-0.2,0-0.4,0.1-0.6,0.2c-0.2,0.1-0.3,0.3-0.4,0.5c-0.1,0.2-0.1,0.4-0.1,0.7
				c0,0.3,0.1,0.5,0.2,0.7c0.2,0.2,0.4,0.2,0.8,0.2c0.2,0,0.4,0,0.6-0.1c0.2-0.1,0.3-0.2,0.4-0.3l0.2,0.4c-0.2,0.1-0.3,0.3-0.6,0.3
				C1111.7-84.7,1111.4-84.6,1111.2-84.6z"/>
			<path class="st7" d="M1115.2-84.7l0.6-3.2h0.6l-0.6,3.2H1115.2z M1116.3-88.4c-0.1,0-0.2,0-0.3-0.1c-0.1-0.1-0.1-0.1-0.1-0.2
				c0-0.1,0-0.2,0.1-0.3c0.1-0.1,0.2-0.1,0.3-0.1c0.1,0,0.2,0,0.3,0.1c0.1,0.1,0.1,0.1,0.1,0.2c0,0.1,0,0.2-0.1,0.3
				C1116.5-88.5,1116.4-88.4,1116.3-88.4z"/>
			<path class="st7" d="M1121.5-87.9c0.3,0,0.5,0.1,0.7,0.2c0.2,0.1,0.3,0.3,0.4,0.5c0.1,0.2,0.1,0.5,0,0.8l-0.4,1.8h-0.6l0.4-1.8
				c0.1-0.3,0-0.5-0.1-0.7c-0.1-0.2-0.3-0.2-0.6-0.2c-0.3,0-0.5,0.1-0.7,0.2c-0.2,0.2-0.3,0.4-0.4,0.7l-0.3,1.7h-0.6l0.4-1.8
				c0.1-0.3,0-0.5-0.1-0.7c-0.1-0.2-0.3-0.2-0.6-0.2c-0.3,0-0.5,0.1-0.7,0.2c-0.2,0.2-0.3,0.4-0.4,0.8l-0.3,1.7h-0.6l0.6-3.2h0.5
				l-0.2,0.9l-0.1-0.2c0.1-0.2,0.3-0.4,0.6-0.5c0.2-0.1,0.5-0.2,0.7-0.2c0.2,0,0.4,0,0.6,0.1c0.2,0.1,0.3,0.2,0.4,0.3
				c0.1,0.1,0.1,0.3,0.2,0.5L1120-87c0.2-0.3,0.4-0.5,0.6-0.7C1120.9-87.8,1121.2-87.9,1121.5-87.9z"/>
			<path class="st7" d="M1124.9-84.6c-0.3,0-0.5-0.1-0.7-0.2c-0.2-0.1-0.4-0.3-0.5-0.5c-0.1-0.2-0.2-0.4-0.2-0.7
				c0-0.3,0-0.5,0.1-0.7c0.1-0.2,0.2-0.4,0.4-0.6c0.2-0.2,0.4-0.3,0.6-0.4c0.2-0.1,0.5-0.1,0.7-0.1c0.3,0,0.5,0,0.7,0.1
				c0.2,0.1,0.3,0.2,0.4,0.4c0.1,0.2,0.2,0.4,0.2,0.7c0,0.4-0.1,0.7-0.2,1c-0.1,0.3-0.3,0.5-0.6,0.7S1125.2-84.6,1124.9-84.6z
				 M1125-85.1c0.2,0,0.5-0.1,0.6-0.2c0.2-0.1,0.3-0.3,0.4-0.5c0.1-0.2,0.2-0.4,0.2-0.7c0-0.3-0.1-0.5-0.2-0.7
				c-0.2-0.2-0.4-0.2-0.7-0.2c-0.2,0-0.4,0.1-0.6,0.2c-0.2,0.1-0.3,0.3-0.4,0.5c-0.1,0.2-0.2,0.4-0.2,0.7c0,0.3,0.1,0.5,0.2,0.7
				C1124.5-85.2,1124.7-85.1,1125-85.1z M1125.9-84.7l0.2-0.8l0.2-0.7l0.1-0.8l0.2-0.9h0.6l-0.6,3.2H1125.9z"/>
			<path class="st7" d="M1128.9-83.5c-0.3,0-0.6,0-0.8-0.1c-0.2-0.1-0.5-0.2-0.6-0.3l0.3-0.4c0.1,0.1,0.3,0.2,0.5,0.3
				c0.2,0.1,0.4,0.1,0.7,0.1c0.4,0,0.7-0.1,0.9-0.3c0.2-0.2,0.3-0.4,0.4-0.8l0.1-0.7l0.2-0.6l0.1-0.6l0.2-0.9h0.5l-0.5,2.7
				c-0.1,0.6-0.3,1-0.6,1.2C1129.9-83.6,1129.5-83.5,1128.9-83.5z M1129.1-84.8c-0.3,0-0.5-0.1-0.7-0.2c-0.2-0.1-0.4-0.3-0.5-0.4
				c-0.1-0.2-0.2-0.4-0.2-0.7c0-0.3,0-0.5,0.1-0.7c0.1-0.2,0.2-0.4,0.4-0.6s0.3-0.3,0.6-0.4c0.2-0.1,0.5-0.1,0.7-0.1
				c0.2,0,0.5,0,0.7,0.1c0.2,0.1,0.4,0.2,0.5,0.4c0.1,0.2,0.2,0.4,0.2,0.7c0,0.4-0.1,0.7-0.2,1c-0.1,0.3-0.3,0.5-0.6,0.7
				S1129.5-84.8,1129.1-84.8z M1129.2-85.3c0.2,0,0.5-0.1,0.6-0.2c0.2-0.1,0.3-0.3,0.4-0.4c0.1-0.2,0.2-0.4,0.2-0.6
				c0-0.3-0.1-0.5-0.2-0.6c-0.2-0.1-0.4-0.2-0.7-0.2c-0.2,0-0.5,0.1-0.6,0.2c-0.2,0.1-0.3,0.3-0.4,0.4c-0.1,0.2-0.2,0.4-0.2,0.6
				c0,0.3,0.1,0.5,0.3,0.6C1128.7-85.4,1128.9-85.3,1129.2-85.3z"/>
			<path class="st7" d="M1132-84.7l0.6-3.2h0.6l-0.6,3.2H1132z M1133.1-88.4c-0.1,0-0.2,0-0.3-0.1c-0.1-0.1-0.1-0.1-0.1-0.2
				c0-0.1,0-0.2,0.1-0.3c0.1-0.1,0.2-0.1,0.3-0.1c0.1,0,0.2,0,0.3,0.1c0.1,0.1,0.1,0.1,0.1,0.2c0,0.1,0,0.2-0.1,0.3
				C1133.3-88.5,1133.2-88.4,1133.1-88.4z"/>
			<path class="st7" d="M1136-87.9c0.3,0,0.5,0.1,0.7,0.2c0.2,0.1,0.3,0.3,0.4,0.5c0.1,0.2,0.1,0.5,0,0.8l-0.4,1.8h-0.6l0.4-1.8
				c0.1-0.3,0-0.5-0.1-0.7c-0.1-0.2-0.3-0.2-0.6-0.2c-0.3,0-0.6,0.1-0.8,0.2c-0.2,0.2-0.3,0.4-0.4,0.8l-0.3,1.7h-0.6l0.6-3.2h0.5
				l-0.2,0.9l-0.1-0.2c0.2-0.2,0.3-0.4,0.6-0.5C1135.5-87.8,1135.8-87.9,1136-87.9z"/>
			<path class="st7" d="M1139.5-84.6c-0.3,0-0.6-0.1-0.8-0.2c-0.2-0.1-0.4-0.3-0.5-0.5c-0.1-0.2-0.2-0.4-0.2-0.7
				c0-0.4,0.1-0.7,0.2-1c0.2-0.3,0.4-0.5,0.6-0.7c0.3-0.2,0.6-0.2,0.9-0.2c0.3,0,0.5,0.1,0.7,0.2c0.2,0.1,0.4,0.3,0.5,0.5
				c0.1,0.2,0.2,0.4,0.2,0.7c0,0.1,0,0.1,0,0.2c0,0.1,0,0.1,0,0.2h-2.7l0.1-0.4h2.4l-0.2,0.1c0-0.2,0-0.4,0-0.6
				c-0.1-0.2-0.2-0.3-0.3-0.4c-0.1-0.1-0.3-0.1-0.5-0.1c-0.2,0-0.4,0.1-0.6,0.2c-0.2,0.1-0.3,0.3-0.4,0.5c-0.1,0.2-0.1,0.4-0.1,0.7
				c0,0.3,0.1,0.5,0.2,0.7c0.2,0.2,0.4,0.2,0.8,0.2c0.2,0,0.4,0,0.6-0.1c0.2-0.1,0.3-0.2,0.4-0.3l0.2,0.4c-0.2,0.1-0.3,0.3-0.6,0.3
				C1140-84.7,1139.8-84.6,1139.5-84.6z"/>
			<path class="st7" d="M1143.2-84.6c-0.3,0-0.5-0.1-0.7-0.2c-0.2-0.1-0.4-0.3-0.5-0.5c-0.1-0.2-0.2-0.4-0.2-0.7
				c0-0.3,0-0.5,0.1-0.7c0.1-0.2,0.2-0.4,0.4-0.6s0.4-0.3,0.6-0.4c0.2-0.1,0.5-0.1,0.7-0.1c0.3,0,0.5,0,0.7,0.1
				c0.2,0.1,0.3,0.2,0.4,0.4c0.1,0.2,0.2,0.4,0.2,0.7c0,0.3,0,0.6-0.1,0.8c-0.1,0.2-0.2,0.5-0.3,0.6c-0.1,0.2-0.3,0.3-0.5,0.4
				C1143.7-84.7,1143.5-84.6,1143.2-84.6z M1143.3-85.1c0.2,0,0.5-0.1,0.6-0.2c0.2-0.1,0.3-0.3,0.4-0.5c0.1-0.2,0.2-0.4,0.2-0.7
				c0-0.3-0.1-0.5-0.2-0.7c-0.2-0.2-0.4-0.2-0.7-0.2c-0.2,0-0.4,0.1-0.6,0.2c-0.2,0.1-0.3,0.3-0.4,0.5c-0.1,0.2-0.2,0.4-0.2,0.7
				c0,0.3,0.1,0.5,0.2,0.7C1142.8-85.2,1143-85.1,1143.3-85.1z M1144.2-84.7l0.2-0.8l0.2-0.7l0.1-0.8l0.4-2.1h0.6l-0.9,4.4H1144.2z"
				/>
		</g>
	</g>
	<g>
		<g>
			<path class="st7" d="M357.8,305H155.9c-6.9,0-12.5-5.6-12.5-12.5s5.6-12.5,12.5-12.5h201.8c4.8,0,8.7-3.7,8.7-8.2
				s-3.9-8.2-8.7-8.2H168.1c-18.5,0-33.6-14.8-33.6-33.1v-1.3c0-18.2,15.1-33.1,33.6-33.1h201.6c6.9,0,12.5,5.6,12.5,12.5
				s-5.6,12.5-12.5,12.5H168.1c-4.8,0-8.7,3.7-8.7,8.2v1.3c0,4.5,3.9,8.2,8.7,8.2h189.6c18.5,0,33.6,14.8,33.6,33.1
				C391.3,290.2,376.3,305,357.8,305z"/>
		</g>
		<g>
			<path class="st7" d="M638.3,263.7H441.5c-6.9,0-12.5-5.6-12.5-12.5v-44.5c0-6.9,5.6-12.5,12.5-12.5h196.8
				c19.1,0,34.7,15.6,34.7,34.7S657.5,263.7,638.3,263.7z M454,238.8h184.3c5.4,0,9.8-4.4,9.8-9.8c0-5.4-4.4-9.8-9.8-9.8H454V238.8z
				"/>
		</g>
		<g>
			<path class="st7" d="M638.3,308.3H441.5c-6.9,0-12.5-5.6-12.5-12.5v-44.5c0-6.9,5.6-12.5,12.5-12.5h196.8
				c19.1,0,34.7,15.6,34.7,34.7S657.5,308.3,638.3,308.3z M454,283.4h184.3c5.4,0,9.8-4.4,9.8-9.8c0-5.4-4.4-9.8-9.8-9.8H454V283.4z
				"/>
		</g>
		<g>
			<path class="st7" d="M721.9,312c-3.2,0-6.4-1.2-8.8-3.6c-4.9-4.9-4.9-12.8,0-17.6l94.1-94.1c5.4-5.4,12.7-8.4,20.4-8.4
				s14.9,3,20.4,8.4l93.9,93.9c4.9,4.9,4.9,12.8,0,17.6c-4.9,4.9-12.8,4.9-17.6,0l-93.9-93.9c-1-1-2.2-1.1-2.8-1.1s-1.8,0.1-2.8,1.1
				l-94.1,94.1C728.3,310.8,725.1,312,721.9,312z"/>
		</g>
		<g>
			<circle class="st7" cx="827.4" cy="281.2" r="19.8"/>
		</g>
	</g>
	<g>
		<path class="st8" d="M528.2,366.4h13.3v-9.3h-13.3c-15.1,0-27.4,10.5-27.4,23.5v4.7H544c-2.2,5.6-8.4,9.7-15.7,9.7h-14.1v9.3h14.1
			c15.1,0,27.4-10.5,27.4-23.5v-4.9h-43.1C514.9,370.3,521,366.4,528.2,366.4z"/>
		<path class="st8" d="M679.7,404.2h26.7v-9.3h-26.7c-9.2,0-16.6-6.4-16.6-14.3c0-7.9,7.5-14.3,16.6-14.3c7.3,0,13.5,4,15.7,9.6
			h-15.7v9.3h27.5v-4.7c0-13-12.3-23.6-27.5-23.6c-15.2,0-27.5,10.6-27.5,23.6C652.1,393.7,664.5,404.2,679.7,404.2z"/>
		<path class="st8" d="M817.7,335.3v26.5c-4.3-2.6-9.6-4.2-15.3-4.2c-14.4,0-26.1,10-26.1,22.4v1.9c0,12.4,11.7,22.4,26.1,22.4h26.1
			v-69H817.7z M817.7,394.9h-15.3c-8.4,0-15.2-5.9-15.2-13.1V380c0-7.2,6.8-13.1,15.2-13.1c8.4,0,15.3,5.9,15.3,13.1V394.9z"/>
		<path class="st8" d="M593.6,357.7h-26.1v65.9h10.9v-23.4c4.3,2.7,9.6,4.2,15.3,4.2c14.4,0,26.1-10.1,26.1-22.4v-1.9
			C619.8,367.7,608,357.7,593.6,357.7z M608.9,382c0,7.2-6.8,13.1-15.2,13.1c-8.4,0-15.3-5.9-15.3-13.1v-15h15.3
			c8.4,0,15.2,5.9,15.2,13.1V382z"/>
		<path class="st8" d="M911.2,335.3v26.5c-4.3-2.6-9.6-4.2-15.3-4.2c-14.4,0-26.1,10-26.1,22.4v1.9c0,12.4,11.7,22.4,26.1,22.4h26.1
			v-69H911.2z M911.2,394.9H896c-8.4,0-15.2-5.9-15.2-13.1V380c0-7.2,6.8-13.1,15.2-13.1c8.4,0,15.3,5.9,15.3,13.1V394.9z"/>
		<rect x="846.9" y="357.3" class="st8" width="10.9" height="46.7"/>
		<rect x="633.4" y="335.3" class="st8" width="10.9" height="68.7"/>
		<rect x="846.9" y="335.3" class="st8" width="10.9" height="10"/>
		<path class="st8" d="M768.4,404.2V380c0-12.2-11.5-22-25.7-22h-28.1v46.2h10.9v-36.8h17.2c8.2,0,14.8,5.7,14.8,12.7v24.1H768.4z"
			/>
	</g>
</g>
</svg>
