<?xml version="1.0" encoding="utf-8"?>
<!-- Generator: Adobe Illustrator 28.0.0, SVG Export Plug-In . SVG Version: 6.00 Build 0)  -->
<svg version="1.1" xmlns="http://www.w3.org/2000/svg" xmlns:xlink="http://www.w3.org/1999/xlink" x="0px" y="0px"
	 viewBox="0 0 1080 518" style="enable-background:new 0 0 1080 518;" xml:space="preserve">
<style type="text/css">
	.st0{fill:#E6F4FF;}
	.st1{fill:#3069B1;}
	.st2{fill-rule:evenodd;clip-rule:evenodd;fill:#3069B1;}
	.st3{fill-rule:evenodd;clip-rule:evenodd;fill:#FFC032;}
	.st4{fill-rule:evenodd;clip-rule:evenodd;fill:#90C4E9;}
	.st5{fill:#90C5E9;}
	.st6{fill:#FFC032;}
</style>
<g id="Layer_2">
	<rect class="st0" width="1080" height="518"/>
</g>
<g id="Layer_1">
	<g id="Layer_1_00000065060845087473561450000000582572727705328800_">
	</g>
	<div  id="divScriptsUsed" style="display: none" xmlns=""></div>
	<script  id="globalVarsDetection" src="moz-extension://5829351e-a71b-4d2f-b1c3-cc064e17af11/js/wrs_env.js" xmlns=""></script>
	<g>
		<path class="st1" d="M709,61.5h-3.1l-1,6.9h-2.6l1-6.9h-3.6l-1,6.9h-2.6l1-6.9h-3.1v-2.5h3.5l0.6-4.3h-3.1v-2.5h3.4l1-6.9h2.7
			l-1,6.9h3.7l1-6.9h2.7l-1,6.9h2.8v2.5h-3.2l-0.6,4.3h2.8V61.5z M700.4,54.8l-0.6,4.3h3.7l0.6-4.3H700.4z"/>
		<path class="st1" d="M713,51.4h3.6v2.4h0.1c1.2-1.7,2.5-2.8,5.3-2.8c2.1,0,4,0.9,4.8,2.8c1.3-1.8,2.8-2.8,5.4-2.8
			c3.6,0,5.7,1.6,5.7,5.7v11.8H734v-10c0-2.7-0.2-4.6-3.1-4.6c-2.5,0-3.6,1.7-3.6,4.6v10h-3.8v-11c0-2.4-0.7-3.6-3-3.6
			c-1.9,0-3.7,1.6-3.7,4.4v10.1H713V51.4z"/>
		<path class="st1" d="M756,64.7c0,0.9,0.2,1.3,0.9,1.3h0.4c0.2,0,0.3,0,0.5-0.1v2.6c-0.6,0.2-1.8,0.4-2.4,0.4
			c-1.6,0-2.6-0.5-2.9-2.1c-1.5,1.5-3.9,2.1-5.9,2.1c-3.1,0-5.8-1.7-5.8-5c0-4.3,3.4-5,6.6-5.3c2.7-0.5,5.1-0.2,5.1-2.4
			c0-2-2-2.3-3.5-2.3c-2.1,0-3.6,0.9-3.8,2.7h-3.8c0.3-4.4,4-5.7,7.8-5.7c3.3,0,6.8,1.4,6.8,5V64.7z M752.2,59.9
			c-1.2,0.8-2.9,0.7-4.6,1c-1.6,0.3-3.1,0.9-3.1,2.8c0,1.7,2.1,2.2,3.5,2.2c1.7,0,4.2-0.9,4.2-3.2V59.9z"/>
		<path class="st1" d="M760.2,44.9h3.8v13.4l6.8-6.9h4.6l-6.5,6.3l7.2,10.8h-4.6l-5.2-8.3l-2.2,2.2v6.1h-3.8V44.9z"/>
		<path class="st1" d="M780.7,60.9c0,2.7,1.5,5.1,4.6,5.1c2.2,0,3.5-1,4.2-2.8h3.6c-0.8,3.7-4,5.8-7.7,5.8c-5.4,0-8.4-3.7-8.4-9
			c0-4.9,3.2-9,8.3-9c5.4,0,8.7,4.9,8.1,10H780.7z M789.5,58.4c-0.2-2.4-1.7-4.5-4.3-4.5c-2.6,0-4.4,2-4.5,4.5H789.5z"/>
		<path class="st1" d="M796.7,44.9h17v3.6h-12.9v6.2h11.9V58h-11.9v6.9h13.1v3.6h-17.2V44.9z"/>
		<path class="st1" d="M815.3,51.4h4.1l4.3,13.1h0.1l4.2-13.1h3.9l-6.1,17.1h-4.2L815.3,51.4z"/>
		<path class="st1" d="M837.1,60.9c0,2.7,1.5,5.1,4.6,5.1c2.2,0,3.5-1,4.2-2.8h3.6c-0.8,3.7-4,5.8-7.7,5.8c-5.4,0-8.4-3.7-8.4-9
			c0-4.9,3.2-9,8.3-9c5.4,0,8.7,4.9,8.1,10H837.1z M845.8,58.4c-0.2-2.4-1.7-4.5-4.3-4.5c-2.6,0-4.4,2-4.5,4.5H845.8z"/>
		<path class="st1" d="M852.5,51.4h3.5v3.3h0.1c0.4-1.8,2.7-3.8,5-3.8c0.9,0,1.1,0.1,1.4,0.1v3.6c-0.5-0.1-1.1-0.2-1.6-0.2
			c-2.5,0-4.6,2-4.6,5.8v8.1h-3.8V51.4z"/>
		<path class="st1" d="M862.2,51.4h4.1l4.5,12.8h0.1l4.3-12.8h3.9l-6.6,18c-1.2,3.1-2.1,5.8-6,5.8c-0.9,0-1.8-0.1-2.6-0.2v-3.2
			c0.6,0.1,1.2,0.2,1.8,0.2c1.7,0,2.2-0.9,2.6-2.4l0.4-1.3L862.2,51.4z"/>
		<path class="st1" d="M897.3,68.5h-3.6v-2.3h-0.1c-1,2-3.1,2.8-5.3,2.8c-5.4,0-8-4-8-9.1c0-6.2,3.7-8.9,7.4-8.9
			c2.1,0,4.5,0.8,5.7,2.7h0.1v-8.7h3.8V68.5z M888.9,66c3.3,0,4.8-3.1,4.8-6c0-3.8-1.8-6-4.7-6c-3.5,0-4.8,3.2-4.8,6.2
			C884.2,63,885.6,66,888.9,66z"/>
		<path class="st1" d="M915.7,64.7c0,0.9,0.2,1.3,0.9,1.3h0.4c0.2,0,0.3,0,0.5-0.1v2.6c-0.6,0.2-1.8,0.4-2.4,0.4
			c-1.6,0-2.6-0.5-2.9-2.1c-1.5,1.5-3.9,2.1-5.9,2.1c-3.1,0-5.8-1.7-5.8-5c0-4.3,3.4-5,6.6-5.3c2.7-0.5,5.1-0.2,5.1-2.4
			c0-2-2-2.3-3.5-2.3c-2.1,0-3.6,0.9-3.8,2.7h-3.8c0.3-4.4,4-5.7,7.8-5.7c3.3,0,6.8,1.4,6.8,5V64.7z M912,59.9
			c-1.2,0.8-2.9,0.7-4.6,1c-1.6,0.3-3.1,0.9-3.1,2.8c0,1.7,2.1,2.2,3.5,2.2c1.7,0,4.2-0.9,4.2-3.2V59.9z"/>
		<path class="st1" d="M917.9,51.4h4.1l4.5,12.8h0.1l4.3-12.8h3.9l-6.6,18c-1.2,3.1-2.1,5.8-6,5.8c-0.9,0-1.8-0.1-2.6-0.2v-3.2
			c0.6,0.1,1.2,0.2,1.8,0.2c1.7,0,2.2-0.9,2.6-2.4l0.4-1.3L917.9,51.4z"/>
		<path class="st1" d="M940.2,60.6c0,3.6,2.7,5.1,6,5.1c3.6,0,5-1.8,5-3.6c0-1.8-1-2.5-1.9-2.9c-1.7-0.6-3.8-1.1-7-1.9
			c-4.1-1.1-5.2-3.5-5.2-6c0-4.8,4.4-6.9,8.6-6.9c4.9,0,9.1,2.6,9.1,7.5h-4.1c-0.2-3-2.2-4.2-5.1-4.2c-1.9,0-4.3,0.7-4.3,3.1
			c0,1.7,1.1,2.5,2.8,3c0.4,0.1,5.6,1.5,6.8,1.8c3.1,1,4.6,3.5,4.6,6c0,5.3-4.7,7.4-9.4,7.4c-5.4,0-9.7-2.6-9.8-8.4H940.2z"/>
		<path class="st1" d="M958.4,44.9h3.8v3.6h-3.8V44.9z M958.4,51.4h3.8v17.1h-3.8V51.4z"/>
		<path class="st1" d="M966.3,51.4h3.6v2.4h0.1c1.2-1.7,2.5-2.8,5.3-2.8c2.1,0,4,0.9,4.8,2.8c1.3-1.8,2.8-2.8,5.4-2.8
			c3.6,0,5.7,1.6,5.7,5.7v11.8h-3.8v-10c0-2.7-0.2-4.6-3.1-4.6c-2.5,0-3.6,1.7-3.6,4.6v10h-3.8v-11c0-2.4-0.7-3.6-3-3.6
			c-1.9,0-3.7,1.6-3.7,4.4v10.1h-3.8V51.4z"/>
		<path class="st1" d="M995.1,51.4h3.6v2.3h0.1c1.1-2,3.1-2.8,5.3-2.8c5.4,0,8,4.1,8,9.1c0,4.6-2.3,8.9-7.4,8.9
			c-2.2,0-4.6-0.8-5.7-2.7h-0.1v8.5h-3.8V51.4z M1003.6,53.9c-3.2,0-4.8,2.4-4.8,6c0,3.4,1.8,6,4.8,6c3.4,0,4.7-3,4.7-6
			C1008.3,56.9,1006.7,53.9,1003.6,53.9z"/>
		<path class="st1" d="M1015.3,44.9h3.8v23.6h-3.8V44.9z"/>
		<path class="st1" d="M1026.1,60.9c0,2.7,1.5,5.1,4.6,5.1c2.2,0,3.5-1,4.2-2.8h3.6c-0.8,3.7-4,5.8-7.7,5.8c-5.4,0-8.4-3.7-8.4-9
			c0-4.9,3.2-9,8.3-9c5.4,0,8.7,4.9,8.1,10H1026.1z M1034.9,58.4c-0.2-2.4-1.7-4.5-4.3-4.5c-2.6,0-4.4,2-4.5,4.5H1034.9z"/>
	</g>
	<g>
		<g>
			<g transform="matrix(1,0,0,1,29.1598,8.56639)">
				<path class="st1" d="M366.2,293v-75h-28.6v-10h68.7v10h-28.7v75H366.2z"/>
			</g>
			<g transform="matrix(1,0,0,1,37.2009,14.2256)">
				<path class="st1" d="M435.4,256.4c-3.9,1.5-9.7,2.9-17.4,3.9c-4.4,0.6-7.5,1.3-9.3,2.1s-3.2,1.9-4.2,3.4c-1,1.5-1.5,3.2-1.5,5
					c0,2.8,1.1,5.1,3.2,7c2.1,1.9,5.3,2.8,9.4,2.8c4.1,0,7.8-0.9,11-2.6c3.2-1.8,5.5-4.2,7-7.2c1.1-2.4,1.7-5.8,1.7-10.5V256.4z
					 M436.3,279.7c-3.9,3.3-7.7,5.6-11.4,7c-3.7,1.4-7.6,2-11.7,2c-6.9,0-12.2-1.7-15.9-5c-3.7-3.3-5.6-7.5-5.6-12.7
					c0-3,0.7-5.8,2.1-8.3c1.4-2.5,3.2-4.5,5.5-6c2.3-1.5,4.8-2.6,7.7-3.4c2.1-0.5,5.2-1.1,9.5-1.6c8.6-1,14.9-2.2,19-3.6
					c0-1.4,0.1-2.3,0.1-2.7c0-4.3-1-7.3-3-9c-2.7-2.4-6.8-3.5-12.1-3.5c-5,0-8.7,0.9-11.1,2.6c-2.4,1.7-4.1,4.8-5.3,9.1l-10.4-1.4
					c0.9-4.4,2.5-7.9,4.7-10.6c2.2-2.7,5.3-4.8,9.4-6.2c4.1-1.5,8.8-2.2,14.3-2.2c5.4,0,9.7,0.6,13.1,1.9c3.4,1.2,5.8,2.8,7.4,4.7
					c1.6,1.9,2.7,4.2,3.3,7.1c0.4,1.8,0.5,5,0.5,9.6v13.9c0,9.7,0.2,15.8,0.7,18.4s1.4,5,2.7,7.4h-11.1
					C437.4,285.1,436.6,282.6,436.3,279.7"/>
			</g>
			<g transform="matrix(1,0,0,1,-73.2211,-231.06)">
				<rect x="572.9" y="447.5" class="st2" width="10.6" height="85"/>
			</g>
			<g transform="matrix(1,0,0,1,-73.2211,-231.06)">
				<rect x="599.8" y="447.5" class="st2" width="10.6" height="85"/>
			</g>
			<g transform="matrix(1,0,0,1,45.5939,11.1391)">
				<path class="st1" d="M507.7,314.1l-1.2-9.8c2.3,0.6,4.4,0.9,6.1,0.9c2.4,0,4.3-0.4,5.7-1.2c1.4-0.8,2.6-1.9,3.5-3.3
					c0.7-1,1.7-3.6,3.3-7.8c0.2-0.6,0.5-1.4,0.9-2.6l-23.8-61.7h11.5l13.1,35.7c1.7,4.5,3.2,9.3,4.5,14.3c1.2-4.8,2.7-9.5,4.4-14
					l13.4-35.9h10.6l-23.9,62.6c-2.6,6.8-4.6,11.4-6,14c-1.9,3.4-4.1,6-6.5,7.6c-2.4,1.6-5.4,2.4-8.8,2.4
					C512.5,315.4,510.2,314.9,507.7,314.1"/>
			</g>
			<g transform="matrix(1,0,0,1,53.2829,13.2108)">
				<path class="st1" d="M573.8,243.7h22.4c7.4,0,12.7-1.4,15.8-4.1c3.1-2.7,4.7-6.5,4.7-11.4c0-3.6-0.9-6.6-2.7-9.1
					c-1.8-2.5-4.3-4.2-7.2-5c-1.9-0.5-5.5-0.8-10.7-0.8h-22.2V243.7z M562.4,288.3v-85h32.7c5.8,0,10.2,0.3,13.2,0.8
					c4.3,0.7,7.8,2,10.7,4c2.9,1.9,5.2,4.7,7,8.2c1.7,3.5,2.6,7.4,2.6,11.6c0,7.2-2.3,13.4-7,18.4c-4.7,5-13.2,7.5-25.4,7.5h-22.2
					v34.6H562.4z"/>
			</g>
			<g transform="matrix(1,0,0,1,60.3449,10.8614)">
				<path class="st1" d="M634.6,290.7v-61.6h9.6v9.3c2.4-4.4,4.7-7.3,6.8-8.6c2.1-1.4,4.3-2.1,6.8-2.1c3.6,0,7.2,1.1,10.9,3.4
					l-3.7,9.7c-2.6-1.5-5.2-2.3-7.8-2.3c-2.3,0-4.4,0.7-6.3,2.1c-1.9,1.4-3.2,3.3-4,5.7c-1.2,3.7-1.8,7.8-1.8,12.2v32.2H634.6z"/>
			</g>
			<g transform="matrix(1,0,0,1,-73.2211,-231.061)">
				<path class="st1" d="M808.7,471h10.6v61.6h-10.6V471z M808.7,447.5h10.6v12h-10.6V447.5z"/>
			</g>
			<g transform="matrix(1,0,0,1,67.3579,10.8614)">
				<path class="st1" d="M695,290.7v-61.6h9.5v8.6c2-3,4.6-5.4,7.9-7.3c3.3-1.8,7-2.8,11.2-2.8c4.6,0,8.5,1,11.4,2.8
					c3,1.9,5.1,4.5,6.3,7.9c5-7.2,11.4-10.8,19.4-10.8c6.2,0,11,1.7,14.4,5.1c3.4,3.4,5,8.6,5,15.6v42.3h-10.6v-38.8
					c0-4.2-0.3-7.2-1-9c-0.7-1.8-1.9-3.3-3.8-4.4s-3.9-1.7-6.4-1.7c-4.4,0-8.1,1.4-11,4.3c-2.9,2.9-4.4,7.5-4.4,13.8v35.8h-10.6v-40
					c0-4.6-0.9-8.1-2.6-10.4c-1.7-2.3-4.6-3.5-8.5-3.5c-3,0-5.8,0.8-8.3,2.3c-2.5,1.6-4.4,3.8-5.5,6.8c-1.1,3-1.7,7.3-1.7,12.9v32
					H695z"/>
			</g>
			<g transform="matrix(1,0,0,1,78.6999,14.8296)">
				<path class="st1" d="M792.6,250h35.1c-0.5-5.2-1.8-9.1-4-11.7c-3.4-4-7.8-6-13.2-6c-4.9,0-9,1.6-12.3,4.8
					C794.8,240.3,792.9,244.6,792.6,250 M827.5,266.8l11,1.3c-1.7,6.3-4.9,11.2-9.6,14.7c-4.7,3.5-10.7,5.2-18,5.2
					c-9.2,0-16.5-2.8-21.9-8.3s-8.1-13.3-8.1-23.4c0-10.4,2.7-18.4,8.2-24.1c5.4-5.7,12.5-8.6,21.2-8.6c8.4,0,15.3,2.8,20.6,8.4
					c5.3,5.6,8,13.5,8,23.7c0,0.6,0,1.5-0.1,2.8H792c0.4,6.8,2.4,11.9,5.9,15.5c3.5,3.6,7.9,5.4,13.1,5.4c3.9,0,7.2-1,10-3
					C823.7,274.5,825.9,271.3,827.5,266.8"/>
			</g>
		</g>
		<g>
			<rect x="162.4" y="182.3" class="st2" width="153.5" height="76.7"/>
			<rect x="162.4" y="259" class="st3" width="76.7" height="76.7"/>
			<rect x="239.2" y="259" class="st4" width="76.7" height="76.7"/>
		</g>
	</g>
	<rect x="22" y="496" transform="matrix(-1 -1.224647e-16 1.224647e-16 -1 1102 1014)" class="st5" width="1058" height="22"/>
	<rect y="496" transform="matrix(-1 -1.224647e-16 1.224647e-16 -1 22 1014)" class="st1" width="22" height="22"/>
	
		<rect x="-237" y="237" transform="matrix(6.123234e-17 -1 1 6.123234e-17 -237.0182 259.0182)" class="st6" width="496" height="22"/>
</g>
</svg>
